<?xml version="1.0" encoding="utf-8"?>
<!-- Generator: Adobe Illustrator 27.5.0, SVG Export Plug-In . SVG Version: 6.00 Build 0)  -->
<svg version="1.1" xmlns="http://www.w3.org/2000/svg" xmlns:xlink="http://www.w3.org/1999/xlink" x="0px" y="0px"
	 viewBox="0 0 500 500" style="enable-background:new 0 0 500 500;" xml:space="preserve">
<g id="BACKGROUND">
</g>
<g id="OBJECTS">
	<path style="opacity:0.64;fill:#C0C8EC;" d="M80.913,409.732c-13.054-17.963-23.84-37.921-31.952-59.121
		c-6.924-18.095-11.541-40.175-1.46-56.374c8.549-13.738,24.604-18.369,38.348-25.324c16.992-8.599,31.908-22.113,42.842-38.816
		c8.937-13.652,15.273-29.385,25.555-41.835c10.283-12.45,26.467-21.302,40.825-15.53c9.259,3.722,15.875,12.673,24.229,18.435
		c12.266,8.46,28.511,9.428,41.535,2.475c9.906-5.288,17.637-14.569,27.33-20.317c23.215-13.768,55.946-1.63,66.864,24.796
		c4.137,10.013,5.525,21.565,11.664,30.244c14.73,20.824,45.774,12.992,66.189,26.828c15.104,10.237,21.771,30.664,24.189,50.009
		c4.49,35.918-2.255,73.422-18.838,104.746c-8.928,0.185-17.857,0.415-26.787,0.415L80.913,409.732z"/>
	<g>
		<polygon style="fill:#FAAD3B;" points="327.439,249.621 312.957,407.386 248.882,404.026 184.807,407.386 170.34,249.621 
			226.807,217.771 232.444,214.591 234.151,214.591 248.382,214.577 249.396,214.577 265.335,214.591 271.041,217.813 
			278.775,222.172 		"/>
		<rect x="226.807" y="178.285" style="fill:#FAAD3B;" width="44.235" height="44.235"/>
		<path d="M279.497,232.335c-16.383-0.444-27.893-4.693-35.877-9.816c-3.971-2.555-7.067-5.304-9.469-7.928
			c-5.595-6.109-7.345-11.454-7.345-11.454l27.727-14.759h16.508v29.434l7.733,4.36L279.497,232.335z"/>
		<path style="fill:#0086FB;" d="M294.49,231.114l-16.87,54.64l-27.45,33.37l-1.25,1.52l-22.12-13.89l-20.07-47.09l6.87-34.44
			l3.77-2.13l6.59-3.72c0,0,0.91,0.82,2.55,1.99c6.93,4.95,26.94,16.12,46.87-2.23l5.98,3.39L294.49,231.114z"/>
		<path style="fill:#FAAD3B;" d="M181.156,336.938c0,0-15.967,40.347-19.813,49.705c-3.846,9.358-18.16,20.743-18.16,20.743H66.751
			c11.718-5.234,35.668-16.425,45.068-24.603c12.648-10.996,31.364-68.796,31.364-68.796L181.156,336.938z"/>
		<path style="fill:#FAAD3B;" d="M433.249,407.386c-11.718-5.22-35.668-16.425-45.068-24.603
			c-12.648-10.996-31.364-68.796-31.364-68.796l-37.973,22.95c0,0,15.953,40.347,19.813,49.705
			c3.846,9.358,18.16,20.743,18.16,20.743H433.249z"/>
		<polygon style="fill:#0086FB;" points="170.336,249.625 125.808,310.981 178.346,336.931 189.148,262.99 		"/>
		<polygon style="fill:#0086FB;" points="327.132,249.625 371.66,310.981 319.123,336.931 308.32,262.99 		"/>
		<g>
			<polygon style="fill:#FFE200;" points="327.13,249.624 320.45,323.954 318.62,344.294 317.33,358.634 315.51,378.974 
				313.95,396.374 312.96,407.384 184.81,407.384 182.2,378.974 180.34,358.634 179.02,344.294 177.16,323.954 170.34,249.624 
				217.37,223.084 217.37,223.094 229.69,248.754 248.88,288.744 279.36,222.524 279.36,222.514 			"/>
		</g>
		<g style="opacity:0.4;">
			<path style="fill:#FFE200;" d="M313.95,396.374l-0.99,11.01H184.81l-2.61-28.41l-1.86-20.34l-1.32-14.34l-1.86-20.34l-6.82-74.33
				l47.03-26.54v0.01l6.59-3.72c0,0,0.91,0.82,2.55,1.99c0.1,4.97,1,14.77,3.18,27.39c3.31,19.26,9.59,45.09,20.48,70.37
				C263.51,350.074,283.75,380.184,313.95,396.374z"/>
		</g>
		<polygon style="fill:#FFFFFF;" points="320.455,323.957 318.622,344.297 179.018,344.297 177.157,323.957 		"/>
		<polygon style="fill:#FFFFFF;" points="317.331,358.639 315.512,378.979 182.197,378.979 180.336,358.639 		"/>
		<g>
			<ellipse cx="246.833" cy="142.683" rx="39.175" ry="46.936"/>
			<g>
				<ellipse style="fill:#FAAD3B;" cx="213.596" cy="162.763" rx="6.862" ry="10.915"/>
			</g>
			<path style="fill:#FAAD3B;" d="M279.48,173.244c-0.09,6.72-0.61,13.02-1.96,16.27c-3.49,8.38-11.56,13.81-15.15,18.18
				c-0.29,0.34-0.54,0.67-0.76,1c-3.09,4.55-11.58,6.04-14.78,5.88c-3.2,0.16-11.69-1.33-14.77-5.88
				c-3.09-4.55-12.15-10.15-15.92-19.18c-3.76-9.03-0.98-41.51-0.98-41.51l22.11-4.2l9.56-1.82l31.68,6.02c0,0,0.15,1.78,0.34,4.62
				C279.17,157.554,279.59,165.674,279.48,173.244z"/>
			<g>
				<g>
					<g>
						<ellipse style="fill:#FAAD3B;" cx="281.4" cy="162.763" rx="6.862" ry="10.915"/>
					</g>
				</g>
			</g>
			<path style="opacity:0.28;fill:#FAAD3B;" d="M235.991,198.822c-15.533-12.401-10.992-48.551,1.279-55.018l-22.11,4.2
				c0,0-0.132,1.539-0.299,4.037c-0.411-0.122-0.833-0.193-1.265-0.193c-3.79,0-6.862,4.887-6.862,10.915
				c0,6.028,3.072,10.915,6.862,10.915c0.202,0,0.401-0.021,0.599-0.048c0.107,6.577,0.617,12.695,1.945,15.884
				c3.77,9.03,12.83,14.63,15.92,19.18c3.08,4.55,11.57,6.04,14.77,5.88c3.2,0.16,11.69-1.33,14.78-5.88c0.22-0.33,0.47-0.66,0.76-1
				C257.93,203.724,243.676,204.957,235.991,198.822z"/>
			<g>
				<g>
					<path style="fill:#FCB501;" d="M294.49,138.844c0,2.4-0.16,4.75-0.44,7.07h-93.11c-0.28-2.32-0.44-4.67-0.44-7.07
						c0-16.18,6.56-30.65,16.87-40.27c0.25-0.23,0.5-0.46,0.75-0.68c3.16-2.83,6.66-5.22,10.42-7.07c5.8-2.86,12.21-4.44,18.96-4.44
						c11.11,0,21.33,4.3,29.37,11.51c0.26,0.22,0.51,0.45,0.75,0.68c8.27,7.71,14.12,18.53,16.11,30.86
						C294.23,132.484,294.49,135.634,294.49,138.844z"/>
					<g>
						<path style="fill:#CA7E35;" d="M277.624,98.578c-0.454,0.671-0.882,1.355-1.281,2.053l-0.51,0.852l-0.448,0.892l-0.895,1.764
							c-0.523,1.221-1.054,2.428-1.529,3.656c-0.42,1.255-0.868,2.495-1.26,3.75l-1.012,3.817c-0.51,2.59-1.074,5.152-1.316,7.775
							l-0.234,1.959l-0.117,0.973l-0.055,0.986l-0.207,3.938c-0.11,1.308-0.034,2.63-0.034,3.938l0.041,3.938
							c0.165,2.355,0.324,4.703,0.51,7.044h-4.814c-0.014-2.348,0-4.696,0.021-7.037l0.269-4.072
							c0.103-1.355,0.131-2.71,0.344-4.065l0.53-4.045l0.131-1.013l0.2-1l0.4-2.006c0.454-2.683,1.247-5.307,1.977-7.923
							l1.336-3.864c0.503-1.268,1.068-2.516,1.598-3.763c0.585-1.234,1.233-2.442,1.86-3.649l1.068-1.751l0.53-0.879l0.585-0.839
							c0.496-0.718,1.013-1.429,1.564-2.113C277.128,98.115,277.376,98.343,277.624,98.578z"/>
						<path style="fill:#CA7E35;" d="M226.271,134.932c0-1.308,0.076-2.63-0.034-3.938l-0.207-3.938l-0.055-0.986l-0.117-0.973
							l-0.234-1.959c-0.241-2.623-0.813-5.186-1.322-7.775l-1.006-3.817c-0.393-1.255-0.84-2.495-1.26-3.75
							c-0.475-1.228-1.006-2.435-1.529-3.656l-0.895-1.764l-0.455-0.892l-0.503-0.852c-0.4-0.698-0.826-1.382-1.281-2.053
							c0.248-0.235,0.496-0.463,0.751-0.684c0.551,0.684,1.061,1.395,1.557,2.113l0.592,0.839l0.53,0.879l1.068,1.751
							c0.627,1.208,1.274,2.415,1.86,3.649c0.53,1.248,1.088,2.496,1.591,3.763l1.343,3.864c0.73,2.616,1.522,5.239,1.977,7.923
							l0.4,2.006l0.2,1l0.131,1.013l0.53,4.045c0.214,1.355,0.241,2.71,0.344,4.065l0.269,4.072
							c0.014,2.341,0.035,4.689,0.028,7.037h-4.828c0.186-2.341,0.351-4.689,0.517-7.044L226.271,134.932z"/>
					</g>
					<path style="fill:#CA7E35;" d="M200.945,145.914c0,0,37.309,9.804,93.106,0H200.945z"/>
				</g>
			</g>
		</g>
		<path style="opacity:0.33;fill:#F79C0D;" d="M294.49,138.844c0,2.4-0.16,4.75-0.44,7.07h-93.11c-0.28-2.32-0.44-4.67-0.44-7.07
			c0-16.18,6.56-30.65,16.87-40.27c0.25-0.23,0.5-0.46,0.75-0.68c3.16-2.83,6.66-5.22,10.42-7.07
			c8.24,10.29,18.36,19.08,29.76,25.71c10.92,6.35,22.99,10.71,35.43,12.9C294.23,132.484,294.49,135.634,294.49,138.844z"/>
		<path style="fill:#FCB501;" d="M294.05,145.914h-93.11C200.94,145.914,237.81,130.364,294.05,145.914z"/>
	</g>
	<g>
		<g>
			<rect x="351.278" y="261.531" style="fill:#E7E8EA;" width="36.79" height="146.08"/>
			<rect x="360.375" y="245.601" style="fill:#E7E8EA;" width="19.177" height="29.425"/>
			<rect x="364.211" y="230.73" style="fill:#E7E8EA;" width="11.506" height="23.106"/>
		</g>
		<g>
			<rect x="353.856" y="265.045" style="fill:#FFFFFF;" width="4.554" height="5.153"/>
			<rect x="360.626" y="265.045" style="fill:#FFFFFF;" width="4.554" height="5.153"/>
			<rect x="367.396" y="265.045" style="fill:#FFFFFF;" width="4.554" height="5.153"/>
			<rect x="374.166" y="265.045" style="fill:#FFFFFF;" width="4.554" height="5.153"/>
			<rect x="380.937" y="265.045" style="fill:#FFFFFF;" width="4.554" height="5.153"/>
		</g>
		<g>
			<rect x="353.856" y="272.45" style="fill:#FFFFFF;" width="4.554" height="5.153"/>
			<rect x="360.626" y="272.45" style="fill:#FFFFFF;" width="4.554" height="5.153"/>
			<rect x="367.396" y="272.45" style="fill:#FFFFFF;" width="4.554" height="5.153"/>
			<rect x="374.166" y="272.45" style="fill:#FFFFFF;" width="4.554" height="5.153"/>
			<rect x="380.937" y="272.45" style="fill:#FFFFFF;" width="4.554" height="5.153"/>
		</g>
		<g>
			<rect x="353.856" y="279.855" style="fill:#FFFFFF;" width="4.554" height="5.153"/>
			<rect x="360.626" y="279.855" style="fill:#FFFFFF;" width="4.554" height="5.153"/>
			<rect x="367.396" y="279.855" style="fill:#FFFFFF;" width="4.554" height="5.153"/>
			<rect x="374.166" y="279.855" style="fill:#FFFFFF;" width="4.554" height="5.153"/>
			<rect x="380.937" y="279.855" style="fill:#FFFFFF;" width="4.554" height="5.153"/>
		</g>
		<g>
			<rect x="353.856" y="287.261" style="fill:#FFFFFF;" width="4.554" height="5.153"/>
			<rect x="360.626" y="287.261" style="fill:#FFFFFF;" width="4.554" height="5.153"/>
			<rect x="367.396" y="287.261" style="fill:#FFFFFF;" width="4.554" height="5.153"/>
			<rect x="374.166" y="287.261" style="fill:#FFFFFF;" width="4.554" height="5.153"/>
			<rect x="380.937" y="287.261" style="fill:#FFFFFF;" width="4.554" height="5.153"/>
		</g>
		<g>
			<rect x="353.856" y="294.666" style="fill:#FFFFFF;" width="4.554" height="5.153"/>
			<rect x="360.626" y="294.666" style="fill:#FFFFFF;" width="4.554" height="5.153"/>
			<rect x="367.396" y="294.666" style="fill:#FFFFFF;" width="4.554" height="5.153"/>
			<rect x="374.166" y="294.666" style="fill:#FFFFFF;" width="4.554" height="5.153"/>
			<rect x="380.937" y="294.666" style="fill:#FFFFFF;" width="4.554" height="5.153"/>
		</g>
		<g>
			<rect x="353.856" y="302.071" style="fill:#FFFFFF;" width="4.554" height="5.153"/>
			<rect x="360.626" y="302.071" style="fill:#FFFFFF;" width="4.554" height="5.153"/>
			<rect x="367.396" y="302.071" style="fill:#FFFFFF;" width="4.554" height="5.153"/>
			<rect x="374.166" y="302.071" style="fill:#FFFFFF;" width="4.554" height="5.153"/>
			<rect x="380.937" y="302.071" style="fill:#FFFFFF;" width="4.554" height="5.153"/>
		</g>
		<g>
			<rect x="353.856" y="309.477" style="fill:#FFFFFF;" width="4.554" height="5.153"/>
			<rect x="360.626" y="309.477" style="fill:#FFFFFF;" width="4.554" height="5.153"/>
			<rect x="367.396" y="309.477" style="fill:#FFFFFF;" width="4.554" height="5.153"/>
			<rect x="374.166" y="309.477" style="fill:#FFFFFF;" width="4.554" height="5.153"/>
			<rect x="380.937" y="309.477" style="fill:#FFFFFF;" width="4.554" height="5.153"/>
		</g>
		<g>
			<rect x="353.856" y="316.882" style="fill:#FFFFFF;" width="4.554" height="5.153"/>
			<rect x="360.626" y="316.882" style="fill:#FFFFFF;" width="4.554" height="5.153"/>
			<rect x="367.396" y="316.882" style="fill:#FFFFFF;" width="4.554" height="5.153"/>
			<rect x="374.166" y="316.882" style="fill:#FFFFFF;" width="4.554" height="5.153"/>
			<rect x="380.937" y="316.882" style="fill:#FFFFFF;" width="4.554" height="5.153"/>
		</g>
		<g>
			<rect x="353.856" y="324.288" style="fill:#FFFFFF;" width="4.554" height="5.153"/>
			<rect x="360.626" y="324.288" style="fill:#FFFFFF;" width="4.554" height="5.153"/>
			<rect x="367.396" y="324.288" style="fill:#FFFFFF;" width="4.554" height="5.153"/>
			<rect x="374.166" y="324.288" style="fill:#FFFFFF;" width="4.554" height="5.153"/>
			<rect x="380.937" y="324.288" style="fill:#FFFFFF;" width="4.554" height="5.153"/>
		</g>
		<g>
			<rect x="353.856" y="331.693" style="fill:#FFFFFF;" width="4.554" height="5.153"/>
			<rect x="360.626" y="331.693" style="fill:#FFFFFF;" width="4.554" height="5.153"/>
			<rect x="367.396" y="331.693" style="fill:#FFFFFF;" width="4.554" height="5.153"/>
			<rect x="374.166" y="331.693" style="fill:#FFFFFF;" width="4.554" height="5.153"/>
			<rect x="380.937" y="331.693" style="fill:#FFFFFF;" width="4.554" height="5.153"/>
		</g>
		<g>
			<rect x="353.856" y="339.098" style="fill:#FFFFFF;" width="4.554" height="5.153"/>
			<rect x="360.626" y="339.098" style="fill:#FFFFFF;" width="4.554" height="5.153"/>
			<rect x="367.396" y="339.098" style="fill:#FFFFFF;" width="4.554" height="5.153"/>
			<rect x="374.166" y="339.098" style="fill:#FFFFFF;" width="4.554" height="5.153"/>
			<rect x="380.937" y="339.098" style="fill:#FFFFFF;" width="4.554" height="5.153"/>
		</g>
		<g>
			<rect x="353.856" y="346.504" style="fill:#FFFFFF;" width="4.554" height="5.153"/>
			<rect x="360.626" y="346.504" style="fill:#FFFFFF;" width="4.554" height="5.153"/>
			<rect x="367.396" y="346.504" style="fill:#FFFFFF;" width="4.554" height="5.153"/>
			<rect x="374.166" y="346.504" style="fill:#FFFFFF;" width="4.554" height="5.153"/>
			<rect x="380.937" y="346.504" style="fill:#FFFFFF;" width="4.554" height="5.153"/>
		</g>
		<g>
			<rect x="353.856" y="353.909" style="fill:#FFFFFF;" width="4.554" height="5.153"/>
			<rect x="360.626" y="353.909" style="fill:#FFFFFF;" width="4.554" height="5.153"/>
			<rect x="367.396" y="353.909" style="fill:#FFFFFF;" width="4.554" height="5.153"/>
			<rect x="374.166" y="353.909" style="fill:#FFFFFF;" width="4.554" height="5.153"/>
			<rect x="380.937" y="353.909" style="fill:#FFFFFF;" width="4.554" height="5.153"/>
		</g>
		<g>
			<rect x="353.856" y="361.314" style="fill:#FFFFFF;" width="4.554" height="5.153"/>
			<rect x="360.626" y="361.314" style="fill:#FFFFFF;" width="4.554" height="5.153"/>
			<rect x="367.396" y="361.314" style="fill:#FFFFFF;" width="4.554" height="5.153"/>
			<rect x="374.166" y="361.314" style="fill:#FFFFFF;" width="4.554" height="5.153"/>
			<rect x="380.937" y="361.314" style="fill:#FFFFFF;" width="4.554" height="5.153"/>
		</g>
		<g>
			<rect x="353.856" y="368.72" style="fill:#FFFFFF;" width="4.554" height="5.153"/>
			<rect x="360.626" y="368.72" style="fill:#FFFFFF;" width="4.554" height="5.153"/>
			<rect x="367.396" y="368.72" style="fill:#FFFFFF;" width="4.554" height="5.153"/>
			<rect x="374.166" y="368.72" style="fill:#FFFFFF;" width="4.554" height="5.153"/>
			<rect x="380.937" y="368.72" style="fill:#FFFFFF;" width="4.554" height="5.153"/>
		</g>
		<g>
			<rect x="353.856" y="376.125" style="fill:#FFFFFF;" width="4.554" height="5.153"/>
			<rect x="360.626" y="376.125" style="fill:#FFFFFF;" width="4.554" height="5.153"/>
			<rect x="367.396" y="376.125" style="fill:#FFFFFF;" width="4.554" height="5.153"/>
			<rect x="374.166" y="376.125" style="fill:#FFFFFF;" width="4.554" height="5.153"/>
			<rect x="380.937" y="376.125" style="fill:#FFFFFF;" width="4.554" height="5.153"/>
		</g>
		<g>
			<rect x="353.856" y="383.53" style="fill:#FFFFFF;" width="4.554" height="5.153"/>
			<rect x="360.626" y="383.53" style="fill:#FFFFFF;" width="4.554" height="5.153"/>
			<rect x="367.396" y="383.53" style="fill:#FFFFFF;" width="4.554" height="5.153"/>
			<rect x="374.166" y="383.53" style="fill:#FFFFFF;" width="4.554" height="5.153"/>
			<rect x="380.937" y="383.53" style="fill:#FFFFFF;" width="4.554" height="5.153"/>
		</g>
		<g>
			<rect x="353.856" y="390.936" style="fill:#FFFFFF;" width="4.554" height="5.153"/>
			<rect x="360.626" y="390.936" style="fill:#FFFFFF;" width="4.554" height="5.153"/>
			<rect x="367.396" y="390.936" style="fill:#FFFFFF;" width="4.554" height="5.153"/>
			<rect x="374.166" y="390.936" style="fill:#FFFFFF;" width="4.554" height="5.153"/>
			<rect x="380.937" y="390.936" style="fill:#FFFFFF;" width="4.554" height="5.153"/>
		</g>
		<g>
			<rect x="353.856" y="398.341" style="fill:#FFFFFF;" width="4.554" height="5.153"/>
			<rect x="360.626" y="398.341" style="fill:#FFFFFF;" width="4.554" height="5.153"/>
			<rect x="367.396" y="398.341" style="fill:#FFFFFF;" width="4.554" height="5.153"/>
			<rect x="374.166" y="398.341" style="fill:#FFFFFF;" width="4.554" height="5.153"/>
			<rect x="380.937" y="398.341" style="fill:#FFFFFF;" width="4.554" height="5.153"/>
		</g>
	</g>
	<g>
		<g>
			<rect x="114.129" y="274.387" style="fill:#E7E8EA;" width="33.552" height="133.224"/>
		</g>
		<g>
			<rect x="116.48" y="277.591" style="fill:#FFFFFF;" width="4.153" height="4.699"/>
			<rect x="122.654" y="277.591" style="fill:#FFFFFF;" width="4.153" height="4.699"/>
			<rect x="128.829" y="277.591" style="fill:#FFFFFF;" width="4.153" height="4.699"/>
			<rect x="135.003" y="277.591" style="fill:#FFFFFF;" width="4.153" height="4.699"/>
			<rect x="141.177" y="277.591" style="fill:#FFFFFF;" width="4.153" height="4.699"/>
		</g>
		<g>
			<rect x="116.48" y="284.345" style="fill:#FFFFFF;" width="4.153" height="4.699"/>
			<rect x="122.654" y="284.345" style="fill:#FFFFFF;" width="4.153" height="4.699"/>
			<rect x="128.829" y="284.345" style="fill:#FFFFFF;" width="4.153" height="4.699"/>
			<rect x="135.003" y="284.345" style="fill:#FFFFFF;" width="4.153" height="4.699"/>
			<rect x="141.177" y="284.345" style="fill:#FFFFFF;" width="4.153" height="4.699"/>
		</g>
		<g>
			<rect x="116.48" y="291.099" style="fill:#FFFFFF;" width="4.153" height="4.699"/>
			<rect x="122.654" y="291.099" style="fill:#FFFFFF;" width="4.153" height="4.699"/>
			<rect x="128.829" y="291.099" style="fill:#FFFFFF;" width="4.153" height="4.699"/>
			<rect x="135.003" y="291.099" style="fill:#FFFFFF;" width="4.153" height="4.699"/>
			<rect x="141.177" y="291.099" style="fill:#FFFFFF;" width="4.153" height="4.699"/>
		</g>
		<g>
			<rect x="116.48" y="297.852" style="fill:#FFFFFF;" width="4.153" height="4.699"/>
			<rect x="122.654" y="297.852" style="fill:#FFFFFF;" width="4.153" height="4.699"/>
			<rect x="128.829" y="297.852" style="fill:#FFFFFF;" width="4.153" height="4.699"/>
			<rect x="135.003" y="297.852" style="fill:#FFFFFF;" width="4.153" height="4.699"/>
			<rect x="141.177" y="297.852" style="fill:#FFFFFF;" width="4.153" height="4.699"/>
		</g>
		<g>
			<rect x="116.48" y="304.606" style="fill:#FFFFFF;" width="4.153" height="4.699"/>
			<rect x="122.654" y="304.606" style="fill:#FFFFFF;" width="4.153" height="4.699"/>
			<rect x="128.829" y="304.606" style="fill:#FFFFFF;" width="4.153" height="4.699"/>
			<rect x="135.003" y="304.606" style="fill:#FFFFFF;" width="4.153" height="4.699"/>
			<rect x="141.177" y="304.606" style="fill:#FFFFFF;" width="4.153" height="4.699"/>
		</g>
		<g>
			<rect x="116.48" y="311.359" style="fill:#FFFFFF;" width="4.153" height="4.7"/>
			<rect x="122.654" y="311.359" style="fill:#FFFFFF;" width="4.153" height="4.7"/>
			<rect x="128.829" y="311.359" style="fill:#FFFFFF;" width="4.153" height="4.7"/>
			<rect x="135.003" y="311.359" style="fill:#FFFFFF;" width="4.153" height="4.7"/>
			<rect x="141.177" y="311.359" style="fill:#FFFFFF;" width="4.153" height="4.7"/>
		</g>
		<g>
			<rect x="116.48" y="318.113" style="fill:#FFFFFF;" width="4.153" height="4.699"/>
			<rect x="122.654" y="318.113" style="fill:#FFFFFF;" width="4.153" height="4.699"/>
			<rect x="128.829" y="318.113" style="fill:#FFFFFF;" width="4.153" height="4.699"/>
			<rect x="135.003" y="318.113" style="fill:#FFFFFF;" width="4.153" height="4.699"/>
			<rect x="141.177" y="318.113" style="fill:#FFFFFF;" width="4.153" height="4.699"/>
		</g>
		<g>
			<rect x="116.48" y="324.867" style="fill:#FFFFFF;" width="4.153" height="4.699"/>
			<rect x="122.654" y="324.867" style="fill:#FFFFFF;" width="4.153" height="4.699"/>
			<rect x="128.829" y="324.867" style="fill:#FFFFFF;" width="4.153" height="4.699"/>
			<rect x="135.003" y="324.867" style="fill:#FFFFFF;" width="4.153" height="4.699"/>
			<rect x="141.177" y="324.867" style="fill:#FFFFFF;" width="4.153" height="4.699"/>
		</g>
		<g>
			<rect x="116.48" y="331.621" style="fill:#FFFFFF;" width="4.153" height="4.699"/>
			<rect x="122.654" y="331.621" style="fill:#FFFFFF;" width="4.153" height="4.699"/>
			<rect x="128.829" y="331.621" style="fill:#FFFFFF;" width="4.153" height="4.699"/>
			<rect x="135.003" y="331.621" style="fill:#FFFFFF;" width="4.153" height="4.699"/>
			<rect x="141.177" y="331.621" style="fill:#FFFFFF;" width="4.153" height="4.699"/>
		</g>
		<g>
			<rect x="116.48" y="338.374" style="fill:#FFFFFF;" width="4.153" height="4.699"/>
			<rect x="122.654" y="338.374" style="fill:#FFFFFF;" width="4.153" height="4.699"/>
			<rect x="128.829" y="338.374" style="fill:#FFFFFF;" width="4.153" height="4.699"/>
			<rect x="135.003" y="338.374" style="fill:#FFFFFF;" width="4.153" height="4.699"/>
			<rect x="141.177" y="338.374" style="fill:#FFFFFF;" width="4.153" height="4.699"/>
		</g>
		<g>
			<rect x="116.48" y="345.128" style="fill:#FFFFFF;" width="4.153" height="4.699"/>
			<rect x="122.654" y="345.128" style="fill:#FFFFFF;" width="4.153" height="4.699"/>
			<rect x="128.829" y="345.128" style="fill:#FFFFFF;" width="4.153" height="4.699"/>
			<rect x="135.003" y="345.128" style="fill:#FFFFFF;" width="4.153" height="4.699"/>
			<rect x="141.177" y="345.128" style="fill:#FFFFFF;" width="4.153" height="4.699"/>
		</g>
		<g>
			<rect x="116.48" y="351.882" style="fill:#FFFFFF;" width="4.153" height="4.699"/>
			<rect x="122.654" y="351.882" style="fill:#FFFFFF;" width="4.153" height="4.699"/>
			<rect x="128.829" y="351.882" style="fill:#FFFFFF;" width="4.153" height="4.699"/>
			<rect x="135.003" y="351.882" style="fill:#FFFFFF;" width="4.153" height="4.699"/>
			<rect x="141.177" y="351.882" style="fill:#FFFFFF;" width="4.153" height="4.699"/>
		</g>
		<g>
			<rect x="116.48" y="358.635" style="fill:#FFFFFF;" width="4.153" height="4.699"/>
			<rect x="122.654" y="358.635" style="fill:#FFFFFF;" width="4.153" height="4.699"/>
			<rect x="128.829" y="358.635" style="fill:#FFFFFF;" width="4.153" height="4.699"/>
			<rect x="135.003" y="358.635" style="fill:#FFFFFF;" width="4.153" height="4.699"/>
			<rect x="141.177" y="358.635" style="fill:#FFFFFF;" width="4.153" height="4.699"/>
		</g>
		<g>
			<rect x="116.48" y="365.389" style="fill:#FFFFFF;" width="4.153" height="4.699"/>
			<rect x="122.654" y="365.389" style="fill:#FFFFFF;" width="4.153" height="4.699"/>
			<rect x="128.829" y="365.389" style="fill:#FFFFFF;" width="4.153" height="4.699"/>
			<rect x="135.003" y="365.389" style="fill:#FFFFFF;" width="4.153" height="4.699"/>
			<rect x="141.177" y="365.389" style="fill:#FFFFFF;" width="4.153" height="4.699"/>
		</g>
		<g>
			<rect x="116.48" y="372.142" style="fill:#FFFFFF;" width="4.153" height="4.699"/>
			<rect x="122.654" y="372.142" style="fill:#FFFFFF;" width="4.153" height="4.699"/>
			<rect x="128.829" y="372.142" style="fill:#FFFFFF;" width="4.153" height="4.699"/>
			<rect x="135.003" y="372.142" style="fill:#FFFFFF;" width="4.153" height="4.699"/>
			<rect x="141.177" y="372.142" style="fill:#FFFFFF;" width="4.153" height="4.699"/>
		</g>
		<g>
			<rect x="116.48" y="378.896" style="fill:#FFFFFF;" width="4.153" height="4.7"/>
			<rect x="122.654" y="378.896" style="fill:#FFFFFF;" width="4.153" height="4.7"/>
			<rect x="128.829" y="378.896" style="fill:#FFFFFF;" width="4.153" height="4.7"/>
			<rect x="135.003" y="378.896" style="fill:#FFFFFF;" width="4.153" height="4.7"/>
			<rect x="141.177" y="378.896" style="fill:#FFFFFF;" width="4.153" height="4.7"/>
		</g>
		<g>
			<rect x="116.48" y="385.65" style="fill:#FFFFFF;" width="4.153" height="4.699"/>
			<rect x="122.654" y="385.65" style="fill:#FFFFFF;" width="4.153" height="4.699"/>
			<rect x="128.829" y="385.65" style="fill:#FFFFFF;" width="4.153" height="4.699"/>
			<rect x="135.003" y="385.65" style="fill:#FFFFFF;" width="4.153" height="4.699"/>
			<rect x="141.177" y="385.65" style="fill:#FFFFFF;" width="4.153" height="4.699"/>
		</g>
		<g>
			<rect x="116.48" y="392.403" style="fill:#FFFFFF;" width="4.153" height="4.699"/>
			<rect x="122.654" y="392.403" style="fill:#FFFFFF;" width="4.153" height="4.699"/>
			<rect x="128.829" y="392.403" style="fill:#FFFFFF;" width="4.153" height="4.699"/>
			<rect x="135.003" y="392.403" style="fill:#FFFFFF;" width="4.153" height="4.699"/>
			<rect x="141.177" y="392.403" style="fill:#FFFFFF;" width="4.153" height="4.699"/>
		</g>
		<g>
			<rect x="116.48" y="399.157" style="fill:#FFFFFF;" width="4.153" height="4.699"/>
			<rect x="122.654" y="399.157" style="fill:#FFFFFF;" width="4.153" height="4.699"/>
			<rect x="128.829" y="399.157" style="fill:#FFFFFF;" width="4.153" height="4.699"/>
			<rect x="135.003" y="399.157" style="fill:#FFFFFF;" width="4.153" height="4.699"/>
			<rect x="141.177" y="399.157" style="fill:#FFFFFF;" width="4.153" height="4.699"/>
		</g>
	</g>
	<g>
		<g>
			<g>
				<path style="fill:#BCC4E9;" d="M114.104,145.479c-0.928-12.228-11.12-21.867-23.585-21.867
					c-12.465,0-22.658,9.639-23.585,21.867H114.104z"/>
				<path style="fill:#BCC4E9;" d="M139.839,145.479c2.163-3.573,3.431-7.748,3.431-12.229c0-13.076-10.6-23.677-23.677-23.677
					s-23.677,10.6-23.677,23.677c0,4.481,1.268,8.656,3.431,12.229H139.839z"/>
				<path style="fill:#BCC4E9;" d="M167.775,145.479c-1.787-11.307-11.548-19.961-23.357-19.961
					c-11.809,0-21.57,8.655-23.357,19.961H167.775z"/>
			</g>
		</g>
		<g>
			<g>
				<path style="fill:#BCC4E9;" d="M382.892,173.021c-0.742-9.778-8.892-17.486-18.86-17.486c-9.968,0-18.118,7.708-18.86,17.486
					H382.892z"/>
				<path style="fill:#BCC4E9;" d="M403.47,173.021c1.73-2.857,2.743-6.196,2.743-9.779c0-10.456-8.477-18.933-18.933-18.933
					s-18.933,8.477-18.933,18.933c0,3.583,1.014,6.922,2.743,9.779H403.47z"/>
				<path style="fill:#BCC4E9;" d="M425.809,173.021c-1.429-9.041-9.234-15.962-18.677-15.962s-17.249,6.921-18.677,15.962H425.809z
					"/>
			</g>
		</g>
	</g>
	<path style="fill:none;stroke:#9A999E;stroke-width:1.0612;stroke-miterlimit:10;" d="M294.42,239.478"/>
	<g>
		<g>
			<g>
				<rect x="232.708" y="264.074" style="fill:#E7E8EA;" width="36.79" height="146.08"/>
				<path style="fill:#E7E8EA;" d="M260.983,277.57h-19.177v-32.794c0-4.184,4.698-6.647,8.139-4.267l11.038,7.635V277.57z"/>
			</g>
			<g>
				<rect x="234.793" y="279.855" style="fill:#FFFFFF;" width="4.554" height="5.153"/>
				<rect x="241.563" y="279.855" style="fill:#FFFFFF;" width="4.554" height="5.153"/>
				<rect x="248.333" y="279.855" style="fill:#FFFFFF;" width="4.554" height="5.153"/>
				<rect x="255.103" y="279.855" style="fill:#FFFFFF;" width="4.554" height="5.153"/>
				<rect x="261.874" y="279.855" style="fill:#FFFFFF;" width="4.554" height="5.153"/>
			</g>
			<g>
				<rect x="234.793" y="294.666" style="fill:#FFFFFF;" width="4.554" height="5.153"/>
				<rect x="241.563" y="294.666" style="fill:#FFFFFF;" width="4.554" height="5.153"/>
				<rect x="248.333" y="294.666" style="fill:#FFFFFF;" width="4.554" height="5.153"/>
				<rect x="255.103" y="294.666" style="fill:#FFFFFF;" width="4.554" height="5.153"/>
				<rect x="261.874" y="294.666" style="fill:#FFFFFF;" width="4.554" height="5.153"/>
			</g>
			<g>
				<rect x="234.793" y="309.477" style="fill:#FFFFFF;" width="4.554" height="5.153"/>
				<rect x="241.563" y="309.477" style="fill:#FFFFFF;" width="4.554" height="5.153"/>
				<rect x="248.333" y="309.477" style="fill:#FFFFFF;" width="4.554" height="5.153"/>
				<rect x="255.103" y="309.477" style="fill:#FFFFFF;" width="4.554" height="5.153"/>
				<rect x="261.874" y="309.477" style="fill:#FFFFFF;" width="4.554" height="5.153"/>
			</g>
			<g>
				<rect x="234.793" y="316.882" style="fill:#FFFFFF;" width="4.554" height="5.153"/>
				<rect x="241.563" y="316.882" style="fill:#FFFFFF;" width="4.554" height="5.153"/>
				<rect x="248.333" y="316.882" style="fill:#FFFFFF;" width="4.554" height="5.153"/>
				<rect x="255.103" y="316.882" style="fill:#FFFFFF;" width="4.554" height="5.153"/>
				<rect x="261.874" y="316.882" style="fill:#FFFFFF;" width="4.554" height="5.153"/>
			</g>
			<g>
				<rect x="234.793" y="324.288" style="fill:#FFFFFF;" width="4.554" height="5.153"/>
				<rect x="241.563" y="324.288" style="fill:#FFFFFF;" width="4.554" height="5.153"/>
				<rect x="248.333" y="324.288" style="fill:#FFFFFF;" width="4.554" height="5.153"/>
				<rect x="255.103" y="324.288" style="fill:#FFFFFF;" width="4.554" height="5.153"/>
				<rect x="261.874" y="324.288" style="fill:#FFFFFF;" width="4.554" height="5.153"/>
			</g>
			<g>
				<rect x="234.793" y="339.098" style="fill:#FFFFFF;" width="4.554" height="5.153"/>
				<rect x="241.563" y="339.098" style="fill:#FFFFFF;" width="4.554" height="5.153"/>
				<rect x="248.333" y="339.098" style="fill:#FFFFFF;" width="4.554" height="5.153"/>
				<rect x="255.103" y="339.098" style="fill:#FFFFFF;" width="4.554" height="5.153"/>
				<rect x="261.874" y="339.098" style="fill:#FFFFFF;" width="4.554" height="5.153"/>
			</g>
			<g>
				<rect x="234.793" y="346.504" style="fill:#FFFFFF;" width="4.554" height="5.153"/>
				<rect x="241.563" y="346.504" style="fill:#FFFFFF;" width="4.554" height="5.153"/>
				<rect x="248.333" y="346.504" style="fill:#FFFFFF;" width="4.554" height="5.153"/>
				<rect x="255.103" y="346.504" style="fill:#FFFFFF;" width="4.554" height="5.153"/>
				<rect x="261.874" y="346.504" style="fill:#FFFFFF;" width="4.554" height="5.153"/>
			</g>
			<g>
				<rect x="234.793" y="353.909" style="fill:#FFFFFF;" width="4.554" height="5.153"/>
				<rect x="241.563" y="353.909" style="fill:#FFFFFF;" width="4.554" height="5.153"/>
				<rect x="248.333" y="353.909" style="fill:#FFFFFF;" width="4.554" height="5.153"/>
				<rect x="255.103" y="353.909" style="fill:#FFFFFF;" width="4.554" height="5.153"/>
				<rect x="261.874" y="353.909" style="fill:#FFFFFF;" width="4.554" height="5.153"/>
			</g>
			<g>
				<rect x="234.793" y="368.72" style="fill:#FFFFFF;" width="4.554" height="5.153"/>
				<rect x="241.563" y="368.72" style="fill:#FFFFFF;" width="4.554" height="5.153"/>
				<rect x="248.333" y="368.72" style="fill:#FFFFFF;" width="4.554" height="5.153"/>
				<rect x="255.103" y="368.72" style="fill:#FFFFFF;" width="4.554" height="5.153"/>
				<rect x="261.874" y="368.72" style="fill:#FFFFFF;" width="4.554" height="5.153"/>
			</g>
			<g>
				<rect x="234.793" y="376.125" style="fill:#FFFFFF;" width="4.554" height="5.153"/>
				<rect x="241.563" y="376.125" style="fill:#FFFFFF;" width="4.554" height="5.153"/>
				<rect x="248.333" y="376.125" style="fill:#FFFFFF;" width="4.554" height="5.153"/>
				<rect x="255.103" y="376.125" style="fill:#FFFFFF;" width="4.554" height="5.153"/>
				<rect x="261.874" y="376.125" style="fill:#FFFFFF;" width="4.554" height="5.153"/>
			</g>
		</g>
		<g>
			<g>
				<rect x="257.582" y="310.27" style="fill:#9A999E;" width="24.63" height="98.62"/>
				<rect x="257.581" y="316.452" style="fill:#CCCBD3;" width="24.629" height="5.341"/>
				<rect x="257.581" y="328.845" style="fill:#CCCBD3;" width="24.629" height="8.985"/>
				<rect x="257.581" y="346.093" style="fill:#CCCBD3;" width="24.629" height="5.349"/>
				<rect x="257.581" y="358.487" style="fill:#CCCBD3;" width="24.629" height="8.993"/>
				<rect x="257.581" y="375.742" style="fill:#CCCBD3;" width="24.629" height="5.349"/>
				<rect x="257.581" y="388.136" style="fill:#CCCBD3;" width="24.629" height="8.993"/>
			</g>
			<rect x="268.302" y="310.27" style="fill:#FFFFFF;" width="3.19" height="98.62"/>
		</g>
		<g>
			<rect x="204.021" y="324.273" style="fill:#CCCBD3;" width="38.083" height="84.617"/>
			<g>
				<g>
					<rect x="206.758" y="326.717" style="fill:#9A999E;" width="6.593" height="6.593"/>
					<rect x="215.277" y="326.717" style="fill:#9A999E;" width="6.593" height="6.593"/>
					<rect x="223.796" y="326.717" style="fill:#9A999E;" width="6.593" height="6.593"/>
					<rect x="232.315" y="326.717" style="fill:#9A999E;" width="6.593" height="6.593"/>
				</g>
				<g>
					<rect x="206.758" y="336.591" style="fill:#9A999E;" width="6.593" height="6.593"/>
					<rect x="215.277" y="336.591" style="fill:#9A999E;" width="6.593" height="6.593"/>
					<rect x="223.796" y="336.591" style="fill:#9A999E;" width="6.593" height="6.593"/>
					<rect x="232.315" y="336.591" style="fill:#9A999E;" width="6.593" height="6.593"/>
				</g>
				<g>
					<rect x="206.758" y="346.466" style="fill:#9A999E;" width="6.593" height="6.593"/>
					<rect x="215.277" y="346.466" style="fill:#9A999E;" width="6.593" height="6.593"/>
					<rect x="223.796" y="346.466" style="fill:#9A999E;" width="6.593" height="6.593"/>
					<rect x="232.315" y="346.466" style="fill:#9A999E;" width="6.593" height="6.593"/>
				</g>
				<g>
					<rect x="206.758" y="356.34" style="fill:#9A999E;" width="6.593" height="6.593"/>
					<rect x="215.277" y="356.34" style="fill:#9A999E;" width="6.593" height="6.593"/>
					<rect x="223.796" y="356.34" style="fill:#9A999E;" width="6.593" height="6.593"/>
					<rect x="232.315" y="356.34" style="fill:#9A999E;" width="6.593" height="6.593"/>
				</g>
				<g>
					<rect x="206.758" y="366.215" style="fill:#9A999E;" width="6.593" height="6.593"/>
					<rect x="215.277" y="366.215" style="fill:#9A999E;" width="6.593" height="6.593"/>
					<rect x="223.796" y="366.215" style="fill:#9A999E;" width="6.593" height="6.593"/>
					<rect x="232.315" y="366.215" style="fill:#9A999E;" width="6.593" height="6.593"/>
				</g>
				<g>
					<rect x="206.758" y="376.089" style="fill:#9A999E;" width="6.593" height="6.593"/>
					<rect x="215.277" y="376.089" style="fill:#9A999E;" width="6.593" height="6.593"/>
					<rect x="223.796" y="376.089" style="fill:#9A999E;" width="6.593" height="6.593"/>
					<rect x="232.315" y="376.089" style="fill:#9A999E;" width="6.593" height="6.593"/>
				</g>
				<g>
					<rect x="206.758" y="385.963" style="fill:#9A999E;" width="6.593" height="6.593"/>
					<rect x="215.277" y="385.963" style="fill:#9A999E;" width="6.593" height="6.593"/>
					<rect x="223.796" y="385.963" style="fill:#9A999E;" width="6.593" height="6.593"/>
					<rect x="232.315" y="385.963" style="fill:#9A999E;" width="6.593" height="6.593"/>
				</g>
				<g>
					<rect x="206.758" y="395.838" style="fill:#9A999E;" width="6.593" height="6.593"/>
					<rect x="215.277" y="395.838" style="fill:#9A999E;" width="14.46" height="13.052"/>
					<rect x="232.315" y="395.838" style="fill:#9A999E;" width="6.593" height="6.593"/>
				</g>
			</g>
		</g>
		<g>
			<g>
				<rect x="327.439" y="268.144" style="fill:#E7E8EA;" width="15.27" height="46.981"/>
				<rect x="332.615" y="239.478" style="fill:#E7E8EA;" width="10.094" height="38.738"/>
			</g>
			<g>
				<g>
					<rect x="310.102" y="289.007" style="fill:#9A999E;" width="36.23" height="121.51"/>
					<rect x="310.102" y="296.627" style="fill:#CCCBD3;" width="36.23" height="6.58"/>
					<rect x="310.102" y="311.897" style="fill:#CCCBD3;" width="36.23" height="11.07"/>
					<rect x="310.102" y="333.147" style="fill:#CCCBD3;" width="36.23" height="6.59"/>
					<rect x="310.102" y="348.418" style="fill:#CCCBD3;" width="36.23" height="11.08"/>
					<rect x="310.102" y="369.678" style="fill:#CCCBD3;" width="36.23" height="6.59"/>
					<rect x="310.102" y="384.947" style="fill:#CCCBD3;" width="36.23" height="11.08"/>
				</g>
				<path style="fill:#FFFFFF;" d="M340.571,356.634h-24.708c-1.478,0-2.677-1.198-2.677-2.677l0,0c0-1.478,1.198-2.677,2.677-2.677
					h24.708c1.478,0,2.677,1.199,2.677,2.677l0,0C343.247,355.436,342.049,356.634,340.571,356.634z"/>
				<path style="fill:#FFFFFF;" d="M340.571,319.938h-24.708c-1.478,0-2.677-1.198-2.677-2.677l0,0c0-1.478,1.198-2.677,2.677-2.677
					h24.708c1.478,0,2.677,1.199,2.677,2.677l0,0C343.247,318.739,342.049,319.938,340.571,319.938z"/>
				<path style="fill:#FFFFFF;" d="M340.571,393.331h-24.708c-1.478,0-2.677-1.198-2.677-2.677l0,0c0-1.478,1.198-2.677,2.677-2.677
					h24.708c1.478,0,2.677,1.199,2.677,2.677l0,0C343.247,392.132,342.049,393.331,340.571,393.331z"/>
			</g>
		</g>
		<g>
			<g>
				<g>
					<polygon style="fill:#9A999E;" points="286.799,408.631 286.799,261.563 302.249,261.563 302.249,408.631 303.249,408.631 
						303.249,260.66 285.799,260.66 285.799,408.631 					"/>
				</g>
				<g>
					<rect x="286.301" y="276.996" style="fill:#9A999E;" width="16.447" height="1"/>
				</g>
				<g>
					<line style="fill:none;stroke:#9A999E;stroke-miterlimit:10;" x1="286.799" y1="261.661" x2="302.748" y2="277.496"/>
					<line style="fill:none;stroke:#9A999E;stroke-miterlimit:10;" x1="302.748" y1="261.661" x2="286.799" y2="277.496"/>
				</g>
				<g>
					<rect x="286.301" y="293.331" style="fill:#9A999E;" width="16.447" height="1"/>
				</g>
				<g>
					<line style="fill:none;stroke:#9A999E;stroke-miterlimit:10;" x1="286.799" y1="277.996" x2="302.748" y2="293.831"/>
					<line style="fill:none;stroke:#9A999E;stroke-miterlimit:10;" x1="302.748" y1="277.996" x2="286.799" y2="293.831"/>
				</g>
				<g>
					<rect x="286.301" y="309.666" style="fill:#9A999E;" width="16.447" height="1"/>
				</g>
				<g>
					<line style="fill:none;stroke:#9A999E;stroke-miterlimit:10;" x1="286.799" y1="294.331" x2="302.748" y2="310.166"/>
					<line style="fill:none;stroke:#9A999E;stroke-miterlimit:10;" x1="302.748" y1="294.331" x2="286.799" y2="310.166"/>
				</g>
				<g>
					<rect x="286.301" y="326.001" style="fill:#9A999E;" width="16.447" height="1"/>
				</g>
				<g>
					<line style="fill:none;stroke:#9A999E;stroke-miterlimit:10;" x1="286.799" y1="310.666" x2="302.748" y2="326.501"/>
					<line style="fill:none;stroke:#9A999E;stroke-miterlimit:10;" x1="302.748" y1="310.666" x2="286.799" y2="326.501"/>
				</g>
				<g>
					<rect x="286.301" y="342.336" style="fill:#9A999E;" width="16.447" height="1"/>
				</g>
				<g>
					<line style="fill:none;stroke:#9A999E;stroke-miterlimit:10;" x1="286.799" y1="327.001" x2="302.748" y2="342.836"/>
					<line style="fill:none;stroke:#9A999E;stroke-miterlimit:10;" x1="302.748" y1="327.001" x2="286.799" y2="342.836"/>
				</g>
				<g>
					<rect x="286.301" y="358.671" style="fill:#9A999E;" width="16.447" height="1"/>
				</g>
				<g>
					<line style="fill:none;stroke:#9A999E;stroke-miterlimit:10;" x1="286.799" y1="343.336" x2="302.748" y2="359.171"/>
					<line style="fill:none;stroke:#9A999E;stroke-miterlimit:10;" x1="302.748" y1="343.336" x2="286.799" y2="359.171"/>
				</g>
				<g>
					<rect x="286.301" y="375.006" style="fill:#9A999E;" width="16.447" height="1"/>
				</g>
				<g>
					<line style="fill:none;stroke:#9A999E;stroke-miterlimit:10;" x1="286.799" y1="359.671" x2="302.748" y2="375.506"/>
					<line style="fill:none;stroke:#9A999E;stroke-miterlimit:10;" x1="302.748" y1="359.671" x2="286.799" y2="375.506"/>
				</g>
				<g>
					<rect x="286.301" y="391.341" style="fill:#9A999E;" width="16.447" height="1"/>
				</g>
				<g>
					<line style="fill:none;stroke:#9A999E;stroke-miterlimit:10;" x1="286.799" y1="376.006" x2="302.748" y2="391.841"/>
					<line style="fill:none;stroke:#9A999E;stroke-miterlimit:10;" x1="302.748" y1="376.006" x2="286.799" y2="391.841"/>
				</g>
				<g>
					<rect x="285.8" y="407.676" style="fill:#9A999E;" width="17.449" height="1"/>
				</g>
				<g>
					<line style="fill:none;stroke:#9A999E;stroke-miterlimit:10;" x1="286.799" y1="392.341" x2="302.748" y2="408.176"/>
					<line style="fill:none;stroke:#9A999E;stroke-miterlimit:10;" x1="302.748" y1="392.341" x2="286.799" y2="408.176"/>
				</g>
			</g>
			<rect x="188.493" y="277.609" style="fill:#9A999E;" width="7.918" height="16.222"/>
			<rect x="217.106" y="277.609" style="fill:#9A999E;" width="7.918" height="16.222"/>
			<rect x="191.87" y="292.658" style="fill:#9A999E;" width="1.177" height="8.042"/>
			<rect x="220.574" y="292.658" style="fill:#9A999E;" width="1.177" height="8.042"/>
			<rect x="191.87" y="311.228" style="fill:#9A999E;" width="1.177" height="2.759"/>
			<rect x="220.574" y="311.228" style="fill:#9A999E;" width="1.177" height="2.759"/>
			<path style="fill:none;stroke:#9A999E;stroke-miterlimit:10;" d="M192.771,311.228h-0.638c-1.133,0-2.052-0.919-2.052-2.052
				v-6.835c0-1.133,0.919-2.052,2.052-2.052h0.638c1.133,0,2.052,0.918,2.052,2.052v6.835
				C194.822,310.31,193.904,311.228,192.771,311.228z"/>
			<path style="fill:none;stroke:#9A999E;stroke-miterlimit:10;" d="M221.482,311.228h-0.638c-1.133,0-2.052-0.919-2.052-2.052
				v-6.835c0-1.133,0.919-2.052,2.052-2.052h0.638c1.133,0,2.052,0.918,2.052,2.052v6.835
				C223.533,310.31,222.615,311.228,221.482,311.228z"/>
			<path style="fill:#7F7E82;" d="M224.056,320.502H190.31c-1.478,0-2.677-1.199-2.677-2.677v-1.16c0-1.478,1.199-2.677,2.677-2.677
				h33.746c1.478,0,2.677,1.199,2.677,2.677v1.16C226.733,319.303,225.534,320.502,224.056,320.502z"/>
			<g>
				<rect x="294.42" y="239.478" style="fill:none;stroke:#9A999E;stroke-miterlimit:10;" width="8.417" height="21.684"/>
				<line style="fill:none;stroke:#9A999E;stroke-miterlimit:10;" x1="294.42" y1="246.197" x2="302.837" y2="246.197"/>
				
					<line style="fill:none;stroke:#9A999E;stroke-width:1.0612;stroke-miterlimit:10;" x1="294.525" y1="253.836" x2="302.837" y2="253.836"/>
			</g>
			<g>
				<g>
					<g>
						<polygon style="fill:#9A999E;" points="171.703,261.66 334.507,261.66 334.507,277.11 171.703,277.11 171.703,278.11 
							335.507,278.11 335.507,260.66 171.703,260.66 						"/>
					</g>
					<g>
						<rect x="318.172" y="261.162" style="fill:#9A999E;" width="1" height="16.447"/>
					</g>
					<g>
						<rect x="302.337" y="261.162" style="fill:#9A999E;" width="1" height="16.447"/>
					</g>
					<g>
						<line style="fill:none;stroke:#9A999E;stroke-miterlimit:10;" x1="334.507" y1="261.66" x2="318.672" y2="277.609"/>
						<line style="fill:none;stroke:#9A999E;stroke-miterlimit:10;" x1="334.507" y1="277.609" x2="318.672" y2="261.66"/>
					</g>
					<g>
						<line style="fill:none;stroke:#9A999E;stroke-miterlimit:10;" x1="318.672" y1="261.66" x2="302.837" y2="277.609"/>
						<line style="fill:none;stroke:#9A999E;stroke-miterlimit:10;" x1="318.672" y1="277.609" x2="302.837" y2="261.66"/>
					</g>
					<g>
						<rect x="286.002" y="261.162" style="fill:#9A999E;" width="1" height="16.447"/>
					</g>
					<g>
						<line style="fill:none;stroke:#9A999E;stroke-miterlimit:10;" x1="302.337" y1="261.66" x2="286.502" y2="277.609"/>
						<line style="fill:none;stroke:#9A999E;stroke-miterlimit:10;" x1="302.337" y1="277.609" x2="286.502" y2="261.66"/>
					</g>
					<g>
						<rect x="269.667" y="261.162" style="fill:#9A999E;" width="1" height="16.447"/>
					</g>
					<g>
						<line style="fill:none;stroke:#9A999E;stroke-miterlimit:10;" x1="286.002" y1="261.66" x2="270.167" y2="277.609"/>
						<line style="fill:none;stroke:#9A999E;stroke-miterlimit:10;" x1="286.002" y1="277.609" x2="270.167" y2="261.66"/>
					</g>
					<g>
						<rect x="253.332" y="261.162" style="fill:#9A999E;" width="1" height="16.447"/>
					</g>
					<g>
						<line style="fill:none;stroke:#9A999E;stroke-miterlimit:10;" x1="269.667" y1="261.66" x2="253.832" y2="277.609"/>
						<line style="fill:none;stroke:#9A999E;stroke-miterlimit:10;" x1="269.667" y1="277.609" x2="253.832" y2="261.66"/>
					</g>
					<g>
						<rect x="236.997" y="261.162" style="fill:#9A999E;" width="1" height="16.447"/>
					</g>
					<g>
						<line style="fill:none;stroke:#9A999E;stroke-miterlimit:10;" x1="253.332" y1="261.66" x2="237.497" y2="277.609"/>
						<line style="fill:none;stroke:#9A999E;stroke-miterlimit:10;" x1="253.332" y1="277.609" x2="237.497" y2="261.66"/>
					</g>
					<g>
						<rect x="220.663" y="261.162" style="fill:#9A999E;" width="1" height="16.447"/>
					</g>
					<g>
						<line style="fill:none;stroke:#9A999E;stroke-miterlimit:10;" x1="236.997" y1="261.66" x2="221.163" y2="277.609"/>
						<line style="fill:none;stroke:#9A999E;stroke-miterlimit:10;" x1="236.997" y1="277.609" x2="221.163" y2="261.66"/>
					</g>
					<g>
						<rect x="204.328" y="261.162" style="fill:#9A999E;" width="1" height="16.447"/>
					</g>
					<g>
						<line style="fill:none;stroke:#9A999E;stroke-miterlimit:10;" x1="220.663" y1="261.66" x2="204.828" y2="277.609"/>
						<line style="fill:none;stroke:#9A999E;stroke-miterlimit:10;" x1="220.663" y1="277.609" x2="204.828" y2="261.66"/>
					</g>
					<g>
						<rect x="187.993" y="261.162" style="fill:#9A999E;" width="1" height="16.447"/>
					</g>
					<g>
						<line style="fill:none;stroke:#9A999E;stroke-miterlimit:10;" x1="204.328" y1="261.66" x2="188.493" y2="277.609"/>
						<line style="fill:none;stroke:#9A999E;stroke-miterlimit:10;" x1="204.328" y1="277.609" x2="188.493" y2="261.66"/>
					</g>
					<g>
						<rect x="171.658" y="260.661" style="fill:#9A999E;" width="1" height="17.449"/>
					</g>
					<g>
						<line style="fill:none;stroke:#9A999E;stroke-miterlimit:10;" x1="187.993" y1="261.66" x2="172.158" y2="277.609"/>
						<line style="fill:none;stroke:#9A999E;stroke-miterlimit:10;" x1="187.993" y1="277.609" x2="172.158" y2="261.66"/>
					</g>
				</g>
				<g>
					<polygon style="fill:none;stroke:#9A999E;stroke-width:0.9776;stroke-miterlimit:10;" points="334.999,268.117 
						334.999,277.624 374.956,277.624 371.652,274.007 					"/>
					
						<polyline style="fill:none;stroke:#9A999E;stroke-width:0.9776;stroke-linecap:round;stroke-linejoin:round;stroke-miterlimit:10;" points="
						335.507,268.823 342.192,277.624 349.604,270.464 354.977,277.624 360.626,272.45 364.211,277.624 368.636,273.522 
						370.93,277.496 372.584,275.026 					"/>
				</g>
			</g>
			
				<line style="fill:none;stroke:#9A999E;stroke-width:1.0612;stroke-miterlimit:10;" x1="302.837" y1="239.478" x2="371.652" y2="274.007"/>
			
				<line style="fill:none;stroke:#9A999E;stroke-width:1.0612;stroke-miterlimit:10;" x1="172.421" y1="261.162" x2="294.42" y2="239.478"/>
		</g>
		<g>
			<rect x="284.627" y="346.022" style="fill:#CCCBD3;" width="23.547" height="62.868"/>
			<g>
				<g>
					<rect x="286.32" y="347.838" style="fill:#9A999E;" width="4.077" height="4.898"/>
					<rect x="291.587" y="347.838" style="fill:#9A999E;" width="4.077" height="4.898"/>
					<rect x="296.854" y="347.838" style="fill:#9A999E;" width="4.077" height="4.898"/>
					<rect x="302.122" y="347.838" style="fill:#9A999E;" width="4.077" height="4.898"/>
				</g>
				<g>
					<rect x="286.32" y="355.174" style="fill:#9A999E;" width="4.077" height="4.898"/>
					<rect x="291.587" y="355.174" style="fill:#9A999E;" width="4.077" height="4.898"/>
					<rect x="296.854" y="355.174" style="fill:#9A999E;" width="4.077" height="4.898"/>
					<rect x="302.122" y="355.174" style="fill:#9A999E;" width="4.077" height="4.898"/>
				</g>
				<g>
					<rect x="286.32" y="362.51" style="fill:#9A999E;" width="4.077" height="4.899"/>
					<rect x="291.587" y="362.51" style="fill:#9A999E;" width="4.077" height="4.899"/>
					<rect x="296.854" y="362.51" style="fill:#9A999E;" width="4.077" height="4.899"/>
					<rect x="302.122" y="362.51" style="fill:#9A999E;" width="4.077" height="4.899"/>
				</g>
				<g>
					<rect x="286.32" y="369.847" style="fill:#9A999E;" width="4.077" height="4.899"/>
					<rect x="291.587" y="369.847" style="fill:#9A999E;" width="4.077" height="4.899"/>
					<rect x="296.854" y="369.847" style="fill:#9A999E;" width="4.077" height="4.899"/>
					<rect x="302.122" y="369.847" style="fill:#9A999E;" width="4.077" height="4.899"/>
				</g>
				<g>
					<rect x="286.32" y="377.183" style="fill:#9A999E;" width="4.077" height="4.899"/>
					<rect x="291.587" y="377.183" style="fill:#9A999E;" width="4.077" height="4.899"/>
					<rect x="296.854" y="377.183" style="fill:#9A999E;" width="4.077" height="4.899"/>
					<rect x="302.122" y="377.183" style="fill:#9A999E;" width="4.077" height="4.899"/>
				</g>
				<g>
					<rect x="286.32" y="384.52" style="fill:#9A999E;" width="4.077" height="4.899"/>
					<rect x="291.587" y="384.52" style="fill:#9A999E;" width="4.077" height="4.899"/>
					<rect x="296.854" y="384.52" style="fill:#9A999E;" width="4.077" height="4.899"/>
					<rect x="302.122" y="384.52" style="fill:#9A999E;" width="4.077" height="4.899"/>
				</g>
				<g>
					<rect x="286.32" y="391.856" style="fill:#9A999E;" width="4.077" height="4.899"/>
					<rect x="291.587" y="391.856" style="fill:#9A999E;" width="4.077" height="4.899"/>
					<rect x="296.854" y="391.856" style="fill:#9A999E;" width="4.077" height="4.899"/>
					<rect x="302.122" y="391.856" style="fill:#9A999E;" width="4.077" height="4.899"/>
				</g>
				<g>
					<rect x="286.32" y="399.193" style="fill:#9A999E;" width="4.077" height="4.899"/>
					<rect x="291.587" y="399.193" style="fill:#9A999E;" width="8.941" height="9.697"/>
					<rect x="302.122" y="399.193" style="fill:#9A999E;" width="4.077" height="4.899"/>
				</g>
			</g>
		</g>
		<g>
			<g>
				<g>
					<rect x="145.245" y="350.219" style="fill:#9A999E;" width="54.124" height="58.121"/>
					<rect x="145.241" y="353.862" style="fill:#CCCBD3;" width="54.122" height="3.147"/>
					<rect x="145.241" y="361.166" style="fill:#CCCBD3;" width="54.122" height="5.295"/>
					<rect x="145.241" y="371.331" style="fill:#CCCBD3;" width="54.122" height="3.152"/>
					<rect x="145.241" y="378.635" style="fill:#CCCBD3;" width="54.122" height="5.3"/>
					<rect x="145.241" y="388.804" style="fill:#CCCBD3;" width="54.122" height="3.152"/>
					<rect x="145.241" y="396.108" style="fill:#CCCBD3;" width="54.122" height="5.3"/>
				</g>
				<rect x="168.802" y="350.219" style="fill:#FFFFFF;" width="7.01" height="58.121"/>
			</g>
			<g>
				<g>
					<line style="fill:none;stroke:#9A999E;stroke-miterlimit:10;" x1="195.873" y1="333.081" x2="195.873" y2="351.591"/>
					<line style="fill:none;stroke:#9A999E;stroke-miterlimit:10;" x1="192.921" y1="333.081" x2="192.921" y2="351.591"/>
					<line style="fill:none;stroke:#9A999E;stroke-miterlimit:10;" x1="189.969" y1="333.081" x2="189.969" y2="351.591"/>
					<line style="fill:none;stroke:#9A999E;stroke-miterlimit:10;" x1="187.016" y1="333.081" x2="187.016" y2="351.591"/>
					<line style="fill:none;stroke:#9A999E;stroke-miterlimit:10;" x1="184.064" y1="333.081" x2="184.064" y2="351.591"/>
					<line style="fill:none;stroke:#9A999E;stroke-miterlimit:10;" x1="181.112" y1="333.081" x2="181.112" y2="351.591"/>
				</g>
				<g>
					<line style="fill:none;stroke:#9A999E;stroke-miterlimit:10;" x1="163.96" y1="333.081" x2="163.96" y2="351.591"/>
					<line style="fill:none;stroke:#9A999E;stroke-miterlimit:10;" x1="161.008" y1="333.081" x2="161.008" y2="351.591"/>
					<line style="fill:none;stroke:#9A999E;stroke-miterlimit:10;" x1="158.055" y1="333.081" x2="158.055" y2="351.591"/>
					<line style="fill:none;stroke:#9A999E;stroke-miterlimit:10;" x1="155.103" y1="333.081" x2="155.103" y2="351.591"/>
					<line style="fill:none;stroke:#9A999E;stroke-miterlimit:10;" x1="152.151" y1="333.081" x2="152.151" y2="351.591"/>
					<line style="fill:none;stroke:#9A999E;stroke-miterlimit:10;" x1="149.198" y1="333.081" x2="149.198" y2="351.591"/>
				</g>
			</g>
		</g>
	</g>
	<g>
		<g>
			<g>
				<path style="fill:#7F7E82;" d="M186.819,394.007c2.153-1.747,4.346-3.517,6.909-4.574c5.101-2.103,10.957-1.098,16.167,0.721
					c2.977,1.039,5.859,2.328,8.738,3.616c1.357,0.607,2.723,1.219,3.952,2.056c1.465,0.997,2.701,2.289,4.061,3.425
					c6.495,5.425,15.296,6.953,23.652,8.287c-5.115,2.124-10.8,2.287-16.337,2.42c-18.697,0.45-37.395,0.901-56.092,1.351
					c-1.961,0.047-4.44-0.25-5.037-2.121c-0.564-1.77-0.799-2.41-0.061-3.794c0.771-1.447,3.663-2.961,4.957-4.011
					C180.758,398.924,183.788,396.465,186.819,394.007z"/>
			</g>
			<path style="fill:#8E8D91;" d="M210.052,394.696c0.353,0.589,0.533,1.282,0.967,1.813c1.555,1.899,5.504,0.917,6.29,3.242
				c0.163,0.482,0.127,1.013,0.275,1.501c0.189,0.624,0.657,1.118,1.11,1.587c1.805,1.868,3.609,3.737,5.414,5.605
				c0.408,0.422,0.839,0.859,1.397,1.041c0.578,0.188,1.206,0.074,1.803-0.041c1.527-0.295,3.136-0.63,4.291-1.672
				c-4.576-1.622-8.684-4.541-11.722-8.328c-0.607-0.757-1.194-1.567-2.023-2.071c-0.724-0.44-1.58-0.613-2.333-1.001
				c-0.564-0.29-1.058-0.695-1.57-1.069c-2.121-1.549-6.124-4.015-8.863-3.573C206.796,392.568,208.982,392.912,210.052,394.696z"/>
			<path style="fill:#8E8D91;" d="M196.652,390.878c-0.493,1.344-0.642,2.818-1.326,4.076c-1.155,2.123-3.644,3.291-4.709,5.461
				c-0.627,1.277-0.709,2.811-1.557,3.953c-0.732,0.986-1.91,1.512-2.984,2.107c-2.23,1.236-4.2,2.938-5.748,4.963
				c3.732,1.128,7.542-1.822,11.437-1.641c0.512,0.024,1.042,0.1,1.527-0.066c0.926-0.317,1.357-1.398,1.419-2.375
				c0.062-0.977-0.125-1.973,0.086-2.928c0.288-1.303,1.264-2.328,1.898-3.502c0.979-1.814,1.123-3.943,1.374-5.989
				c0.067-0.543,0.144-1.093,0.358-1.597c0.432-1.021,1.73-2.923,0.723-4.04C197.999,388.024,197.062,389.761,196.652,390.878z"/>
		</g>
		<g>
			
				<rect x="217.307" y="391.018" transform="matrix(0.9091 0.4165 -0.4165 0.9091 183.641 -54.8708)" style="fill:#8E8D91;" width="0.518" height="4.782"/>
			<path style="fill:#FFA200;" d="M220.081,389.193l-0.963-0.441c-0.371-0.17-0.806,0.041-0.901,0.439l-0.309,1.293
				c-0.072,0.301,0.079,0.611,0.361,0.74l0.553,0.253c0.292,0.134,0.638,0.034,0.814-0.236l0.719-1.105
				C220.57,389.804,220.441,389.358,220.081,389.193z M219.407,390.812c-0.106,0.163-0.316,0.224-0.493,0.143l-0.335-0.153
				c-0.17-0.078-0.262-0.266-0.218-0.448l0.187-0.783c0.057-0.241,0.32-0.369,0.546-0.266l0.583,0.267
				c0.218,0.1,0.296,0.37,0.166,0.571L219.407,390.812z"/>
		</g>
		<g>
			
				<rect x="185.377" y="392.803" transform="matrix(0.8315 -0.5556 0.5556 0.8315 -188.2798 169.7476)" style="fill:#8E8D91;" width="0.518" height="4.782"/>
			<path style="fill:#FFA200;" d="M183.364,390.842l-0.881,0.589c-0.34,0.227-0.387,0.708-0.099,0.997l0.939,0.941
				c0.219,0.219,0.562,0.253,0.819,0.081l0.506-0.338c0.267-0.179,0.363-0.526,0.226-0.816l-0.564-1.191
				C184.141,390.746,183.694,390.622,183.364,390.842z M184.39,392.265c0.083,0.176,0.025,0.386-0.137,0.494l-0.306,0.205
				c-0.156,0.104-0.364,0.084-0.496-0.049l-0.568-0.57c-0.175-0.175-0.146-0.466,0.06-0.604l0.533-0.357
				c0.199-0.133,0.471-0.058,0.573,0.159L184.39,392.265z"/>
		</g>
	</g>
	<g>
		<path style="fill:#9A999E;" d="M262.582,370.197c0,0,10.672-5.745,14.786-6.043c4.114-0.298,7.083,1.09,10.577,0.156
			c3.494-0.934,10.693,0.655,12.552,2.98c1.86,2.325,3.243,5.873,3.243,5.873l-3.35,10.592l-22.228,0.275l-13.617-3.338
			l-2.455-5.954L262.582,370.197z"/>
		<path style="fill:#7F7E82;" d="M262.582,372.44c0,0,10.672-5.745,14.786-6.043c4.114-0.298,7.083,1.09,10.577,0.156
			c3.494-0.934,10.693,0.655,12.552,2.98c1.86,2.325,3.243,5.873,3.243,5.873l-3.35,10.592l-22.228,0.275l-13.617-3.339
			l-2.455-5.954L262.582,372.44z"/>
		<g>
			<g>
				<g>
					<rect x="251.478" y="389.579" width="11.104" height="9.786"/>
					<polygon points="261.192,391.073 261.192,398.774 292.079,398.774 292.079,391.645 					"/>
					<path style="fill:#FFA200;" d="M272.989,400.588l5.764-7.731h23.484l2.669,3.866v2.399c0,0.81-0.657,1.467-1.467,1.467H272.989
						z"/>
					<g>
						<path style="fill:#FFA40A;" d="M303.741,399.425v0.09c0,1.521-1.232,2.762-2.753,2.762h-43.391
							c-1.52,0-2.753-1.241-2.753-2.762v-0.09c0-0.117,0.009-0.234,0.027-0.342c0.162-1.358,1.323-2.411,2.726-2.411h43.391
							c1.404,0,2.564,1.053,2.726,2.411C303.732,399.191,303.741,399.308,303.741,399.425z"/>
						<path style="fill:#FFA40A;" d="M258.857,399.785v2.492h-25.326c-1.781,0-3.221-1.422-3.257-3.194v-4.084
							c0-0.792,0.234-1.53,0.639-2.141c0.693-1.071,1.907-1.781,3.284-1.781h15.951c1.988,0,3.815,0.666,5.281,1.781
							c0.873,0.666,1.619,1.502,2.186,2.438c0.261,0.432,0.486,0.891,0.666,1.376c0.297,0.756,0.486,1.565,0.549,2.411
							C258.848,399.317,258.857,399.551,258.857,399.785z"/>
						<path style="fill:#FFAF24;" d="M303.741,399.425v0.09c0,1.521-1.232,2.762-2.753,2.762h-67.457
							c-1.781,0-3.221-1.422-3.257-3.194h73.44C303.732,399.191,303.741,399.308,303.741,399.425z"/>
						<path style="fill:#FFAF24;" d="M257.615,395.295h-27.341v-0.297c0-0.792,0.234-1.53,0.639-2.141h24.516
							C256.302,393.523,257.048,394.36,257.615,395.295z"/>
					</g>
				</g>
				<g>
					<g>
						<path d="M289.936,400.588c0,3.753-3.043,6.796-6.796,6.796c-3.753,0-6.796-3.043-6.796-6.796c0-3.753,3.043-6.796,6.796-6.796
							C286.893,393.792,289.936,396.835,289.936,400.588z"/>
						<path style="fill:#4A4146;" d="M286.462,400.588c0,1.835-1.487,3.323-3.323,3.323c-1.835,0-3.322-1.487-3.322-3.323
							c0-1.835,1.487-3.322,3.322-3.322C284.975,397.266,286.462,398.753,286.462,400.588z"/>
						<path style="fill:#C28101;" d="M284.912,400.588c0,0.979-0.793,1.772-1.772,1.772c-0.979,0-1.772-0.793-1.772-1.772
							c0-0.979,0.793-1.772,1.772-1.772C284.119,398.816,284.912,399.609,284.912,400.588z"/>
					</g>
					<g>
						<path d="M303.969,400.588c0,3.753-3.043,6.796-6.796,6.796c-3.753,0-6.796-3.043-6.796-6.796c0-3.753,3.043-6.796,6.796-6.796
							C300.927,393.792,303.969,396.835,303.969,400.588z"/>
						<circle style="fill:#4A4146;" cx="297.173" cy="400.588" r="3.322"/>
						<path style="fill:#C28101;" d="M298.946,400.588c0,0.979-0.793,1.772-1.772,1.772c-0.979,0-1.772-0.793-1.772-1.772
							c0-0.979,0.793-1.772,1.772-1.772C298.152,398.816,298.946,399.609,298.946,400.588z"/>
					</g>
					<g>
						<g>
							<path style="fill:#4A4146;" d="M306.147,399.087c-0.433,0-0.859-0.208-1.12-0.596l-2.888-4.285h-23.301l-3.237,4.339
								c-0.447,0.597-1.292,0.72-1.889,0.274c-0.597-0.445-0.72-1.292-0.274-1.889l3.642-4.88c0.255-0.341,0.655-0.542,1.081-0.542
								h24.695c0.449,0,0.868,0.223,1.119,0.596l3.289,4.881c0.416,0.617,0.253,1.457-0.365,1.873
								C306.669,399.012,306.407,399.087,306.147,399.087z"/>
						</g>
					</g>
				</g>
			</g>
			<g>
				<g>
					<g>
						<path style="fill:#FFA200;" d="M255.879,373.389v14.521c0,2.42-1.961,4.381-4.39,4.381h-18.182
							c-2.303,0-4.192-1.772-4.372-4.021c-0.009-0.117-0.018-0.243-0.018-0.36v-3.905c0-0.684,0.162-1.358,0.477-1.979l0.279-0.558
							l4.678-9.267l0.144-0.288c0.72-1.422,2.15-2.339,3.743-2.402l8.349-0.324l4.741-0.18
							C253.809,368.917,255.879,370.905,255.879,373.389z"/>
						<path style="fill:#FFAF24;" d="M248.187,375.404c0,7.521-6.487,13.621-14.485,13.621c-1.673,0-3.275-0.27-4.768-0.756
							c-0.009-0.117-0.018-0.243-0.018-0.36v-3.905c0-0.684,0.162-1.358,0.477-1.979l0.279-0.558l4.678-9.267l0.144-0.288
							c0.72-1.422,2.15-2.339,3.743-2.402l8.349-0.324C247.611,371.049,248.187,373.164,248.187,375.404z"/>
					</g>
					<g>
						<path style="fill:#3D3437;" d="M246.936,375.575v2.852c0,1.862-1.512,3.365-3.374,3.365H231.12
							c-0.522,0-1.008-0.117-1.448-0.324l0.441-0.864l3.743-7.422l0.495-0.98h9.213
							C245.425,372.201,246.936,373.712,246.936,375.575z"/>
						<path style="fill:#0086FB;" d="M244.57,375.125v3.725c0,0.801-0.72,1.448-1.601,1.448h-10.445
							c-0.234,0-0.459-0.018-0.675-0.072l3.635-6.559h7.476c0.531,0,1.008,0.234,1.286,0.603
							C244.453,374.513,244.57,374.81,244.57,375.125z"/>
						<polygon style="fill:#FFFFFF;" points="240.566,373.668 235.6,380.298 233.531,380.298 238.587,373.668 						"/>
						<path style="fill:#FFFFFF;" d="M244.246,374.27l-4.516,6.028h-2.069l5.056-6.63h0.243
							C243.49,373.668,243.967,373.901,244.246,374.27z"/>
					</g>
					<g>
						<rect x="240.195" y="383.261" style="fill:#FFAF24;" width="6.741" height="1.211"/>
						<g>
							<rect x="249.842" y="383.349" style="fill:#FFAF24;" width="2.653" height="1.362"/>
							<rect x="249.842" y="373.101" style="fill:#FFAF24;" width="2.653" height="1.562"/>
							<rect x="249.842" y="381.34" style="fill:#FFAF24;" width="2.653" height="1.362"/>
							<rect x="249.842" y="379.33" style="fill:#FFAF24;" width="2.653" height="1.362"/>
							<rect x="249.842" y="377.32" style="fill:#FFAF24;" width="2.653" height="1.362"/>
							<rect x="249.842" y="375.31" style="fill:#FFAF24;" width="2.653" height="1.362"/>
						</g>
					</g>
					<g>
						<rect x="232.706" y="387.072" style="fill:#FFAF24;" width="19.789" height="1.054"/>
						<rect x="232.706" y="388.76" style="fill:#FFAF24;" width="19.789" height="0.53"/>
					</g>
				</g>
				<g>
					<g>
						<path d="M249.842,400.588c0,3.753-3.043,6.796-6.796,6.796c-3.753,0-6.796-3.043-6.796-6.796c0-3.753,3.043-6.796,6.796-6.796
							C246.799,393.792,249.842,396.835,249.842,400.588z"/>
						<path style="fill:#4A4146;" d="M246.368,400.588c0,1.835-1.488,3.323-3.322,3.323c-1.835,0-3.323-1.487-3.323-3.323
							c0-1.835,1.488-3.322,3.323-3.322C244.881,397.266,246.368,398.753,246.368,400.588z"/>
						<path style="fill:#C28101;" d="M244.818,400.588c0,0.979-0.794,1.772-1.772,1.772c-0.979,0-1.772-0.793-1.772-1.772
							c0-0.979,0.793-1.772,1.772-1.772C244.025,398.816,244.818,399.609,244.818,400.588z"/>
					</g>
					<g>
						<g>
							<path style="fill:#4A4146;" d="M251.146,401.938c-0.745,0-1.35-0.604-1.35-1.349c0-3.722-3.028-6.75-6.75-6.75
								c-3.722,0-6.75,3.028-6.75,6.75c0,0.745-0.605,1.349-1.35,1.349c-0.745,0-1.349-0.604-1.349-1.349
								c0-5.21,4.239-9.449,9.449-9.449c5.21,0,9.449,4.239,9.449,9.449C252.495,401.333,251.891,401.938,251.146,401.938z"/>
						</g>
					</g>
				</g>
			</g>
		</g>
		<g>
			<g>
				<path style="fill:#FFA200;" d="M308.455,369.853l-4.516,20.998c-0.018,0.081-0.045,0.162-0.072,0.234
					c-0.18,0.414-0.594,0.693-1.062,0.693h-43.814c-0.648,0-1.17-0.522-1.17-1.17v-22.941c0-0.648-0.522-1.169-1.169-1.169h-7.647
					c-0.639,0-1.161-0.522-1.161-1.161c0-0.648,0.522-1.17,1.161-1.17h16.635c0.378,0,0.738,0.189,0.954,0.504l2.285,3.275
					c0.216,0.315,0.576,0.495,0.954,0.495h37.48C308.059,368.44,308.608,369.133,308.455,369.853z"/>
				<path style="fill:#FFAF24;" d="M303.867,391.085c-0.18,0.414-0.594,0.693-1.062,0.693h-43.814c-0.648,0-1.17-0.522-1.17-1.17
					v-22.941c0-0.648-0.522-1.169-1.169-1.169h-7.647c-0.639,0-1.161-0.522-1.161-1.161c0-0.648,0.522-1.17,1.161-1.17h16.635
					c0.378,0,0.738,0.189,0.954,0.504l2.285,3.275c0.216,0.315,0.576,0.495,0.954,0.495h3.329L303.867,391.085z"/>
			</g>
			<g>
				<g>
					<g>
						<path style="fill:#FFBC4A;" d="M271.147,389.022h-7.754c-1.216,0-2.201-0.986-2.201-2.201v-2.949h9.955V389.022z"/>
						<rect x="273.184" y="383.871" style="fill:#FFBC4A;" width="9.955" height="5.15"/>
						<rect x="285.177" y="383.871" style="fill:#FFBC4A;" width="9.955" height="5.15"/>
						<path style="fill:#FFBC4A;" d="M303.822,383.87l-0.701,3.264c-0.237,1.103-1.212,1.891-2.34,1.891h-3.608v-5.155H303.822z"/>
						<path style="fill:#FFBC4A;" d="M271.147,382.509h-9.955v-7.771c0-1.401,1.136-2.537,2.537-2.537h7.419V382.509z"/>
						<rect x="273.184" y="372.201" style="fill:#FFBC4A;" width="9.955" height="10.307"/>
						<rect x="285.177" y="372.201" style="fill:#FFBC4A;" width="9.955" height="10.307"/>
						<path style="fill:#FFBC4A;" d="M306.105,372.645c-0.099,0.632-0.315,1.732-0.347,1.883c-0.222,1.076-0.444,2.151-0.666,3.227
							c-0.217,1.051-0.434,2.101-0.651,3.152c-0.109,0.53-0.219,1.06-0.332,1.605c-0.004,0-6.936,0-6.936,0v-10.31
							c0,0,8.935,0,8.973,0C306.167,372.202,306.146,372.383,306.105,372.645z"/>
					</g>
				</g>
				<g>
					<path style="fill:#FFA40A;" d="M263.393,388.122c-0.718,0-1.302-0.583-1.302-1.301v-2.05h8.157v3.351H263.393z"/>
					
						<rect x="276.487" y="382.369" transform="matrix(-1.836970e-16 1 -1 -1.836970e-16 664.6089 108.2841)" style="fill:#FFA40A;" width="3.351" height="8.156"/>
					
						<rect x="288.479" y="382.369" transform="matrix(-1.836970e-16 1 -1 -1.836970e-16 676.6015 96.2915)" style="fill:#FFA40A;" width="3.351" height="8.156"/>
					<path style="fill:#FFA40A;" d="M298.073,388.126v-3.356h4.635l-0.467,2.176c-0.148,0.684-0.761,1.18-1.46,1.18H298.073z"/>
					<path style="fill:#FFA40A;" d="M262.091,381.609v-6.871c0-0.902,0.734-1.637,1.638-1.637h6.519v8.508H262.091z"/>
					
						<rect x="273.908" y="373.277" transform="matrix(-1.836970e-16 1 -1 -1.836970e-16 655.5173 99.1926)" style="fill:#FFA40A;" width="8.508" height="8.156"/>
					
						<rect x="285.901" y="373.277" transform="matrix(-1.836970e-16 1 -1 -1.836970e-16 667.5099 87.2)" style="fill:#FFA40A;" width="8.508" height="8.156"/>
					<path style="fill:#FFA40A;" d="M298.073,381.612v-8.511h7.041c-0.099,0.553-0.215,1.141-0.236,1.248l-1.501,7.263H298.073z"/>
				</g>
			</g>
		</g>
	</g>
	<g>
		<path style="fill:#9A999E;" d="M355.671,375.848c0,0-9.063-4.879-12.556-5.132c-3.493-0.253-6.015,0.926-8.982,0.133
			c-2.967-0.793-9.079,0.556-10.659,2.53c-1.579,1.974-2.754,4.987-2.754,4.987l2.845,8.994l18.875,0.234l11.563-2.835l2.085-5.056
			L355.671,375.848z"/>
		<path style="fill:#7F7E82;" d="M355.671,377.753c0,0-9.063-4.879-12.556-5.132c-3.493-0.253-6.015,0.926-8.982,0.133
			c-2.967-0.793-9.079,0.556-10.659,2.53c-1.579,1.974-2.754,4.987-2.754,4.987l2.845,8.995l18.875,0.233l11.563-2.835l2.085-5.056
			L355.671,377.753z"/>
		<g>
			<g>
				<g>
					
						<rect x="355.671" y="392.306" transform="matrix(-1 -1.224647e-16 1.224647e-16 -1 720.7711 792.9222)" width="9.429" height="8.309"/>
					<polygon points="356.851,393.574 356.851,400.114 330.624,400.114 330.624,394.06 					"/>
					<path style="fill:#FFA200;" d="M346.834,401.655l-4.895-6.565h-19.942l-2.266,3.283v2.037c0,0.688,0.558,1.246,1.246,1.246
						H346.834z"/>
					<g>
						<path style="fill:#FFA40A;" d="M320.721,400.667v0.076c0,1.291,1.047,2.345,2.338,2.345h36.845
							c1.291,0,2.338-1.054,2.338-2.345v-0.076c0-0.099-0.008-0.199-0.023-0.29c-0.138-1.154-1.123-2.047-2.315-2.047h-36.845
							c-1.192,0-2.177,0.894-2.315,2.047C320.729,400.468,320.721,400.568,320.721,400.667z"/>
						<path style="fill:#FFA40A;" d="M358.834,400.972v2.116h21.505c1.513,0,2.735-1.207,2.765-2.712v-3.468
							c0-0.672-0.199-1.299-0.542-1.818c-0.588-0.909-1.62-1.513-2.788-1.513h-13.545c-1.688,0-3.239,0.565-4.484,1.513
							c-0.741,0.565-1.375,1.276-1.856,2.07c-0.221,0.367-0.413,0.756-0.565,1.169c-0.252,0.642-0.413,1.329-0.466,2.047
							C358.842,400.575,358.834,400.774,358.834,400.972z"/>
						<path style="fill:#FFAF24;" d="M320.721,400.667v0.076c0,1.291,1.047,2.345,2.338,2.345h57.281
							c1.513,0,2.735-1.207,2.765-2.712h-62.361C320.729,400.468,320.721,400.568,320.721,400.667z"/>
						<path style="fill:#FFAF24;" d="M359.888,397.16h23.216v-0.252c0-0.672-0.199-1.299-0.542-1.818h-20.818
							C361.004,395.655,360.37,396.366,359.888,397.16z"/>
					</g>
				</g>
				<g>
					<g>
						<path d="M332.444,401.655c0,3.187,2.584,5.771,5.771,5.771s5.771-2.584,5.771-5.771c0-3.187-2.584-5.771-5.771-5.771
							S332.444,398.467,332.444,401.655z"/>
						<path style="fill:#4A4146;" d="M335.393,401.655c0,1.558,1.263,2.821,2.821,2.821s2.821-1.263,2.821-2.821
							c0-1.558-1.263-2.821-2.821-2.821S335.393,400.096,335.393,401.655z"/>
						<circle style="fill:#C28101;" cx="338.214" cy="401.655" r="1.505"/>
					</g>
					<g>
						<path d="M320.527,401.655c0,3.187,2.584,5.771,5.771,5.771s5.771-2.584,5.771-5.771c0-3.187-2.584-5.771-5.771-5.771
							S320.527,398.467,320.527,401.655z"/>
						<path style="fill:#4A4146;" d="M323.477,401.655c0,1.558,1.263,2.821,2.821,2.821c1.558,0,2.821-1.263,2.821-2.821
							c0-1.558-1.263-2.821-2.821-2.821C324.74,398.833,323.477,400.096,323.477,401.655z"/>
						<path style="fill:#C28101;" d="M324.793,401.655c0,0.831,0.674,1.505,1.505,1.505c0.831,0,1.505-0.674,1.505-1.505
							c0-0.831-0.674-1.505-1.505-1.505C325.467,400.15,324.793,400.823,324.793,401.655z"/>
					</g>
					<g>
						<g>
							<path style="fill:#4A4146;" d="M318.677,400.379c0.368,0,0.73-0.177,0.951-0.506l2.452-3.638h19.786l2.748,3.684
								c0.38,0.507,1.097,0.611,1.604,0.233c0.507-0.378,0.611-1.097,0.233-1.604l-3.092-4.144c-0.216-0.289-0.556-0.46-0.918-0.46
								h-20.97c-0.381,0-0.737,0.189-0.951,0.506l-2.793,4.144c-0.354,0.524-0.215,1.237,0.31,1.59
								C318.234,400.316,318.457,400.379,318.677,400.379z"/>
						</g>
					</g>
				</g>
			</g>
			<g>
				<g>
					<g>
						<path style="fill:#FFA200;" d="M361.363,378.558v12.33c0,2.055,1.665,3.72,3.728,3.72h15.439c1.956,0,3.56-1.505,3.713-3.415
							c0.008-0.099,0.015-0.206,0.015-0.306v-3.316c0-0.581-0.137-1.154-0.405-1.681l-0.237-0.474l-3.972-7.869l-0.122-0.244
							c-0.611-1.207-1.826-1.986-3.178-2.04l-7.089-0.275l-4.026-0.153C363.12,374.761,361.363,376.45,361.363,378.558z"/>
						<path style="fill:#FFAF24;" d="M367.895,380.269c0,6.387,5.508,11.566,12.299,11.566c1.421,0,2.781-0.229,4.049-0.642
							c0.008-0.099,0.015-0.206,0.015-0.306v-3.316c0-0.581-0.137-1.154-0.405-1.681l-0.237-0.474l-3.972-7.869l-0.122-0.244
							c-0.611-1.207-1.826-1.986-3.178-2.04l-7.089-0.275C368.383,376.572,367.895,378.367,367.895,380.269z"/>
					</g>
					<g>
						<path style="fill:#3D3437;" d="M368.956,380.415v2.422c0,1.581,1.284,2.857,2.865,2.857h10.565
							c0.443,0,0.856-0.099,1.23-0.275l-0.374-0.733l-3.178-6.303l-0.42-0.833h-7.823
							C370.24,377.55,368.956,378.833,368.956,380.415z"/>
						<path style="fill:#0086FB;" d="M370.966,380.033v3.163c0,0.68,0.611,1.23,1.36,1.23h8.869c0.199,0,0.39-0.015,0.573-0.061
							l-3.086-5.569h-6.348c-0.451,0-0.856,0.199-1.092,0.512C371.065,379.513,370.966,379.765,370.966,380.033z"/>
						<polygon style="fill:#FFFFFF;" points="374.365,378.795 378.582,384.425 380.339,384.425 376.046,378.795 						"/>
						<path style="fill:#FFFFFF;" d="M371.241,379.307l3.835,5.118h1.757l-4.293-5.63h-0.206
							C371.882,378.795,371.477,378.994,371.241,379.307z"/>
					</g>
					<g>
						
							<rect x="368.956" y="386.941" transform="matrix(-1 -1.224647e-16 1.224647e-16 -1 743.6373 774.9108)" style="fill:#FFAF24;" width="5.724" height="1.028"/>
						<g>
							<rect x="364.236" y="387.016" style="fill:#FFAF24;" width="2.253" height="1.156"/>
							<rect x="364.236" y="378.314" style="fill:#FFAF24;" width="2.253" height="1.326"/>
							<rect x="364.236" y="385.31" style="fill:#FFAF24;" width="2.253" height="1.156"/>
							<rect x="364.236" y="383.603" style="fill:#FFAF24;" width="2.253" height="1.156"/>
							<rect x="364.236" y="381.897" style="fill:#FFAF24;" width="2.253" height="1.156"/>
							<rect x="364.236" y="380.19" style="fill:#FFAF24;" width="2.253" height="1.156"/>
						</g>
					</g>
					<g>
						
							<rect x="364.236" y="390.177" transform="matrix(-1 -1.224647e-16 1.224647e-16 -1 745.2756 781.2493)" style="fill:#FFAF24;" width="16.804" height="0.895"/>
						
							<rect x="364.236" y="391.611" transform="matrix(-1 -1.224647e-16 1.224647e-16 -1 745.2756 783.671)" style="fill:#FFAF24;" width="16.804" height="0.45"/>
					</g>
				</g>
				<g>
					<g>
						<path d="M366.489,401.655c0,3.187,2.584,5.771,5.771,5.771s5.771-2.584,5.771-5.771c0-3.187-2.584-5.771-5.771-5.771
							S366.489,398.467,366.489,401.655z"/>
						<path style="fill:#4A4146;" d="M369.438,401.655c0,1.558,1.263,2.821,2.821,2.821c1.558,0,2.821-1.263,2.821-2.821
							c0-1.558-1.263-2.821-2.821-2.821C370.701,398.833,369.438,400.096,369.438,401.655z"/>
						<path style="fill:#C28101;" d="M370.755,401.655c0,0.831,0.674,1.505,1.505,1.505c0.831,0,1.505-0.674,1.505-1.505
							c0-0.831-0.674-1.505-1.505-1.505C371.428,400.15,370.755,400.823,370.755,401.655z"/>
					</g>
					<g>
						<g>
							<path style="fill:#4A4146;" d="M365.382,402.801c0.633,0,1.146-0.513,1.146-1.146c0-3.16,2.572-5.732,5.732-5.732
								c3.16,0,5.732,2.572,5.732,5.732c0,0.633,0.513,1.146,1.146,1.146c0.633,0,1.146-0.513,1.146-1.146
								c0-4.424-3.6-8.024-8.024-8.024c-4.424,0-8.024,3.6-8.024,8.024C364.236,402.287,364.749,402.801,365.382,402.801z"/>
						</g>
					</g>
				</g>
			</g>
		</g>
		<g>
			<g>
				<path style="fill:#FFA200;" d="M316.718,375.556l3.835,17.831c0.015,0.069,0.038,0.137,0.061,0.199
					c0.153,0.351,0.504,0.588,0.901,0.588h37.204c0.55,0,0.993-0.443,0.993-0.993v-19.481c0-0.55,0.443-0.993,0.993-0.993h6.493
					c0.543,0,0.986-0.443,0.986-0.985c0-0.55-0.443-0.993-0.986-0.993h-14.125c-0.321,0-0.626,0.161-0.81,0.428l-1.94,2.781
					c-0.183,0.267-0.489,0.42-0.81,0.42h-31.826C317.054,374.356,316.588,374.945,316.718,375.556z"/>
				<path style="fill:#FFAF24;" d="M320.614,393.585c0.153,0.351,0.504,0.588,0.901,0.588h37.204c0.55,0,0.993-0.443,0.993-0.993
					v-19.481c0-0.55,0.443-0.993,0.993-0.993h6.493c0.543,0,0.986-0.443,0.986-0.985c0-0.55-0.443-0.993-0.986-0.993h-14.125
					c-0.321,0-0.626,0.161-0.81,0.428l-1.94,2.781c-0.183,0.267-0.489,0.42-0.81,0.42h-2.827L320.614,393.585z"/>
			</g>
			<g>
				<g>
					<g>
						<path style="fill:#FFBC4A;" d="M348.398,391.833h6.584c1.032,0,1.869-0.837,1.869-1.869v-2.504h-8.453V391.833z"/>
						<rect x="338.214" y="387.46" style="fill:#FFBC4A;" width="8.453" height="4.373"/>
						<rect x="328.031" y="387.46" style="fill:#FFBC4A;" width="8.453" height="4.373"/>
						<path style="fill:#FFBC4A;" d="M320.652,387.458l0.595,2.772c0.201,0.936,1.029,1.605,1.987,1.605h3.064v-4.377H320.652z"/>
						<path style="fill:#FFBC4A;" d="M348.398,386.302h8.453v-6.599c0-1.19-0.964-2.154-2.154-2.154h-6.299V386.302z"/>
						<rect x="338.214" y="377.55" style="fill:#FFBC4A;" width="8.453" height="8.752"/>
						<rect x="328.031" y="377.55" style="fill:#FFBC4A;" width="8.453" height="8.752"/>
						<path style="fill:#FFBC4A;" d="M318.713,377.926c0.084,0.536,0.268,1.471,0.294,1.599c0.189,0.913,0.377,1.827,0.566,2.74
							c0.184,0.892,0.368,1.784,0.553,2.676c0.093,0.45,0.186,0.9,0.282,1.363c0.003,0,5.89,0,5.89,0v-8.754c0,0-7.587,0-7.619,0
							C318.661,377.55,318.678,377.704,318.713,377.926z"/>
					</g>
				</g>
				<g>
					<path style="fill:#FFA40A;" d="M356.088,389.963v-1.74h-6.926v2.845h5.821C355.593,391.069,356.088,390.574,356.088,389.963z"
						/>
					
						<rect x="341.018" y="386.184" transform="matrix(-1.836970e-16 1 -1 -1.836970e-16 732.087 47.2056)" style="fill:#FFA40A;" width="2.845" height="6.925"/>
					
						<rect x="330.835" y="386.184" transform="matrix(-1.836970e-16 1 -1 -1.836970e-16 721.9036 57.389)" style="fill:#FFA40A;" width="2.845" height="6.925"/>
					<path style="fill:#FFA40A;" d="M325.534,391.072v-2.85h-3.936l0.396,1.848c0.125,0.581,0.646,1.002,1.24,1.002H325.534z"/>
					<path style="fill:#FFA40A;" d="M356.088,385.539v-5.835c0-0.768-0.622-1.39-1.39-1.39h-5.536v7.225H356.088z"/>
					
						<rect x="338.828" y="378.463" transform="matrix(-1.836970e-16 1 -1 -1.836970e-16 724.3669 39.4855)" style="fill:#FFA40A;" width="7.225" height="6.925"/>
					
						<rect x="328.645" y="378.463" transform="matrix(-1.836970e-16 1 -1 -1.836970e-16 714.1835 49.6689)" style="fill:#FFA40A;" width="7.225" height="6.925"/>
					<path style="fill:#FFA40A;" d="M325.534,385.541v-7.227h-5.979c0.084,0.469,0.183,0.969,0.201,1.059l1.274,6.167H325.534z"/>
				</g>
			</g>
		</g>
	</g>
	<g>
		<g>
			<g>
				<rect x="335.863" y="402.364" style="fill:#86858A;" width="13.737" height="4.885"/>
				<path style="fill:#D7D6DE;" d="M341.895,405.807h-5.158c-0.081,0-0.146-0.065-0.146-0.146v-1.71
					c0-0.081,0.065-0.146,0.146-0.146h5.158c0.081,0,0.146,0.065,0.146,0.146v1.71C342.041,405.742,341.975,405.807,341.895,405.807
					z"/>
				<path style="fill:#D7D6DE;" d="M348.677,405.807h-5.752c-0.107,0-0.194-0.087-0.194-0.193v-1.615
					c0-0.107,0.087-0.194,0.194-0.194h5.752c0.107,0,0.194,0.087,0.194,0.194v1.615C348.87,405.721,348.784,405.807,348.677,405.807
					z"/>
			</g>
			<g>
				<rect x="335.863" y="397.49" style="fill:#9A999E;" width="13.737" height="4.885"/>
				<path style="fill:#D7D6DE;" d="M341.895,400.933h-5.158c-0.081,0-0.146-0.065-0.146-0.146v-1.71
					c0-0.081,0.065-0.146,0.146-0.146h5.158c0.081,0,0.146,0.065,0.146,0.146v1.71C342.041,400.868,341.975,400.933,341.895,400.933
					z"/>
				<path style="fill:#D7D6DE;" d="M348.677,400.933h-5.752c-0.107,0-0.194-0.087-0.194-0.193v-1.615
					c0-0.107,0.087-0.193,0.194-0.193h5.752c0.107,0,0.194,0.087,0.194,0.193v1.615C348.87,400.847,348.784,400.933,348.677,400.933
					z"/>
			</g>
			<g>
				
					<rect x="345.608" y="397.938" transform="matrix(-1.836970e-16 1 -1 -1.836970e-16 752.8566 47.9047)" style="fill:#9A999E;" width="13.737" height="4.885"/>
				<path style="fill:#D7D6DE;" d="M351.475,399.544v-5.158c0-0.081,0.065-0.146,0.146-0.146h1.71c0.081,0,0.146,0.065,0.146,0.146
					v5.158c0,0.081-0.065,0.146-0.146,0.146h-1.71C351.54,399.69,351.475,399.625,351.475,399.544z"/>
				<path style="fill:#D7D6DE;" d="M351.475,406.327v-5.752c0-0.107,0.087-0.194,0.194-0.194h1.615c0.107,0,0.194,0.087,0.194,0.194
					v5.752c0,0.107-0.087,0.193-0.194,0.193h-1.615C351.562,406.52,351.475,406.433,351.475,406.327z"/>
			</g>
			<g>
				
					<rect x="350.874" y="397.938" transform="matrix(-1.836970e-16 1 -1 -1.836970e-16 758.1229 42.6384)" style="fill:#9A999E;" width="13.737" height="4.885"/>
				<path style="fill:#D7D6DE;" d="M356.741,399.544v-5.158c0-0.081,0.065-0.146,0.146-0.146h1.71c0.081,0,0.146,0.065,0.146,0.146
					v5.158c0,0.081-0.065,0.146-0.146,0.146h-1.71C356.807,399.69,356.741,399.625,356.741,399.544z"/>
				<path style="fill:#D7D6DE;" d="M356.741,406.327v-5.752c0-0.107,0.087-0.194,0.194-0.194h1.615c0.107,0,0.193,0.087,0.193,0.194
					v5.752c0,0.107-0.087,0.193-0.193,0.193h-1.615C356.828,406.52,356.741,406.433,356.741,406.327z"/>
			</g>
		</g>
		<g>
			<g>
				
					<rect x="370.955" y="402.364" transform="matrix(-1 -1.224647e-16 1.224647e-16 -1 755.6468 809.6127)" style="fill:#8B8A8F;" width="13.737" height="4.885"/>
				<path style="fill:#D7D6DE;" d="M378.66,405.807h5.158c0.081,0,0.146-0.065,0.146-0.146v-1.71c0-0.081-0.065-0.146-0.146-0.146
					h-5.158c-0.081,0-0.146,0.065-0.146,0.146v1.71C378.514,405.742,378.579,405.807,378.66,405.807z"/>
				<path style="fill:#D7D6DE;" d="M371.878,405.807h5.752c0.107,0,0.194-0.087,0.194-0.193v-1.615c0-0.107-0.087-0.194-0.194-0.194
					h-5.752c-0.107,0-0.193,0.087-0.193,0.194v1.615C371.684,405.721,371.771,405.807,371.878,405.807z"/>
			</g>
			<g>
				
					<rect x="370.955" y="397.49" transform="matrix(-1 -1.224647e-16 1.224647e-16 -1 755.6468 799.8644)" style="fill:#9A999E;" width="13.737" height="4.885"/>
				<path style="fill:#D7D6DE;" d="M378.66,400.933h5.158c0.081,0,0.146-0.065,0.146-0.146v-1.71c0-0.081-0.065-0.146-0.146-0.146
					h-5.158c-0.081,0-0.146,0.065-0.146,0.146v1.71C378.514,400.868,378.579,400.933,378.66,400.933z"/>
				<path style="fill:#D7D6DE;" d="M371.878,400.933h5.752c0.107,0,0.194-0.087,0.194-0.193v-1.615c0-0.107-0.087-0.193-0.194-0.193
					h-5.752c-0.107,0-0.193,0.087-0.193,0.193v1.615C371.684,400.847,371.771,400.933,371.878,400.933z"/>
			</g>
			<g>
				
					<rect x="361.21" y="397.938" transform="matrix(-1.836970e-16 1 -1 -1.836970e-16 768.4592 32.3022)" style="fill:#9A999E;" width="13.737" height="4.885"/>
				<path style="fill:#D7D6DE;" d="M369.08,399.544v-5.158c0-0.081-0.065-0.146-0.146-0.146h-1.71c-0.081,0-0.146,0.065-0.146,0.146
					v5.158c0,0.081,0.065,0.146,0.146,0.146h1.71C369.014,399.69,369.08,399.625,369.08,399.544z"/>
				<path style="fill:#D7D6DE;" d="M369.08,406.327v-5.752c0-0.107-0.087-0.194-0.194-0.194h-1.615
					c-0.107,0-0.194,0.087-0.194,0.194v5.752c0,0.107,0.087,0.193,0.194,0.193h1.615C368.993,406.52,369.08,406.433,369.08,406.327z
					"/>
			</g>
			<g>
				
					<rect x="355.944" y="397.938" transform="matrix(-1.836970e-16 1 -1 -1.836970e-16 763.1928 37.5685)" style="fill:#9A999E;" width="13.737" height="4.885"/>
				<path style="fill:#D7D6DE;" d="M363.813,399.544v-5.158c0-0.081-0.065-0.146-0.146-0.146h-1.71
					c-0.081,0-0.146,0.065-0.146,0.146v5.158c0,0.081,0.065,0.146,0.146,0.146h1.71C363.748,399.69,363.813,399.625,363.813,399.544
					z"/>
				<path style="fill:#D7D6DE;" d="M363.813,406.327v-5.752c0-0.107-0.087-0.194-0.194-0.194h-1.615
					c-0.107,0-0.193,0.087-0.193,0.194v5.752c0,0.107,0.087,0.193,0.193,0.193h1.615
					C363.727,406.52,363.813,406.433,363.813,406.327z"/>
			</g>
		</g>
	</g>
	<g>
		<path style="fill:#FFA200;" d="M122.55,397.902h32.698l0.557-1.152l1.709-3.573l0.712-1.489l0.505-1.061l0.557-1.165l0.259-0.531
			c0,0-0.544-0.803-1.657-1.916c-0.026-0.026-0.065-0.065-0.104-0.103c-0.66-0.66-1.515-1.424-2.563-2.188
			c-0.013-0.013-0.013,0-0.013,0c-0.492-0.362-1.01-0.725-1.579-1.074c-1.398-0.867-3.055-1.683-4.971-2.291
			c-0.621-0.207-1.256-0.388-1.929-0.544h-0.013c-0.971-0.22-1.993-0.388-3.068-0.492c-1.346-0.129-2.706,0.065-4.026,0.492
			c-0.427,0.129-0.854,0.298-1.282,0.479c-1.061,0.466-2.097,1.061-3.107,1.76c-1.307,0.919-2.576,1.993-3.754,3.145
			c-0.971,0.945-1.877,1.942-2.731,2.926c-0.104,0.117-0.194,0.233-0.298,0.35c-1.126,1.346-2.123,2.666-2.964,3.857
			c-0.479,0.686-0.906,1.307-1.269,1.877C123.159,396.827,122.55,397.902,122.55,397.902z"/>
		<g>
			<g>
				<path style="fill:#FFA40A;" d="M145.294,395.145c0,0.945,0.104,1.877,0.324,2.757c0.414,1.799,1.23,3.443,2.356,4.828
					c0.013,0.026,0.039,0.052,0.065,0.078c2.214,2.718,5.579,4.44,9.359,4.44c4.647,0,8.673-2.615,10.705-6.459
					c0.039-0.078,0.078-0.155,0.117-0.233c0.531-1.074,0.919-2.227,1.113-3.443c0.117-0.634,0.168-1.294,0.168-1.968
					c0-0.984-0.117-1.942-0.35-2.861c-0.091-0.388-0.194-0.764-0.324-1.126c-1.165-3.314-3.715-5.967-6.964-7.249
					c-1.385-0.557-2.887-0.854-4.466-0.854c-1.32,0-2.589,0.207-3.767,0.595c-2.822,0.919-5.178,2.848-6.653,5.359
					c-0.207,0.337-0.388,0.686-0.557,1.049c-0.181,0.388-0.35,0.777-0.479,1.191c-0.168,0.479-0.298,0.971-0.401,1.489
					C145.371,393.513,145.294,394.316,145.294,395.145z"/>
				<path style="fill:#B26B03;" d="M146.732,395.15c0,5.89,4.775,10.665,10.665,10.665c5.89,0,10.665-4.775,10.665-10.665
					c0-5.89-4.775-10.665-10.665-10.665C151.507,384.485,146.732,389.26,146.732,395.15z"/>
				
					<ellipse transform="matrix(0.3496 -0.9369 0.9369 0.3496 -267.8453 404.4655)" style="fill:#FFA200;" cx="157.397" cy="395.15" rx="8.16" ry="8.16"/>
			</g>
			<g>
				<path style="fill:#FFA200;" d="M142.096,393.902v5.165c0,2.214,1.851,3.961,4.039,3.844c0.065,0,0.142,0,0.22-0.013l1.618-0.168
					l1.735-0.194l3.521-0.375l9.721-1.048l3.534-0.375l1.734-0.181l0.091-0.013c0.777-0.078,1.476-0.388,2.045-0.867
					c0.854-0.699,1.398-1.773,1.398-2.964v-1.812c0-1.799-1.243-3.327-2.925-3.741c-0.246-0.052-0.492-0.091-0.751-0.103
					l-0.841-0.039l-2.887-0.129l-1.45-0.065l-4.168-0.194l-7.87-0.362l-2.874-0.129l-1.566-0.078l-0.298-0.013
					c-1.113-0.052-2.123,0.375-2.861,1.1c-0.285,0.272-0.531,0.609-0.725,0.958C142.252,392.646,142.096,393.255,142.096,393.902z"
					/>
				<g>
					<path style="fill:#FFA40A;" d="M142.847,394.704v4.712c0,1.799,1.437,3.275,3.288,3.495c0.272,0.026,0.57,0.026,0.867,0
						l1.036-0.103l1.76-0.181l3.599-0.362l9.32-0.932l3.624-0.362l1.76-0.181l0.298-0.026c0.777-0.078,1.476-0.375,2.032-0.815
						c0.815-0.647,1.32-1.605,1.32-2.68v-1.644c0-1.553-1.087-2.886-2.602-3.34c-0.311-0.103-0.634-0.155-0.984-0.168l-0.544-0.026
						l-2.705-0.116h-0.078l-6.615-0.285l-8.051-0.35l-2.692-0.117l-0.712-0.026c-0.285-0.013-0.57,0-0.828,0.052
						C144.193,391.546,142.847,392.97,142.847,394.704z"/>
					<path style="fill:#C28101;" d="M155.248,395.313c0,1.187,0.962,2.149,2.149,2.149s2.148-0.962,2.148-2.149
						c0-1.186-0.962-2.149-2.148-2.149S155.248,394.127,155.248,395.313z"/>
					<path style="fill:#B26B03;" d="M147.167,401.43l17.036-1.613c0.374-0.035,0.648-0.367,0.613-0.741l0,0
						c-0.035-0.374-0.367-0.648-0.741-0.613l-17.036,1.613c-0.374,0.035-0.648,0.367-0.613,0.741l0,0
						C146.461,401.191,146.793,401.465,147.167,401.43z"/>
				</g>
			</g>
		</g>
		<polygon style="fill:#FFA40A;" points="130.822,369.359 131.288,370.55 132.052,372.492 132.544,373.734 134.071,372.647 
			133.527,371.508 133.061,370.55 132.44,369.243 		"/>
		<path style="fill:#FFA40A;" d="M129.217,369.359c0,0.66,0.531,1.191,1.178,1.191h20.012c0.647,0,1.178-0.531,1.178-1.191
			c0-0.647-0.531-1.178-1.178-1.178h-20.012C129.747,368.181,129.217,368.712,129.217,369.359z"/>
		<path style="fill:#FFA40A;" d="M116.117,394.29c0,0.143,0,0.285,0.013,0.427c0.026,0.673,0.091,1.294,0.181,1.877
			c0,0-0.013,0,0,0.013c0.116,0.725,0.285,1.385,0.466,1.981c1.411,4.427,4.518,5.411,4.518,5.411l1.722-1.346l0.712-0.557
			l2.304-1.812h0.013l1.709-1.346l1.32-1.036l0.984-0.764l2.498-1.968l0.803-0.621l0.738-0.414l1.45-0.828l1.087-0.621l0.065-0.039
			l1.411-0.803l1.178-0.673l-0.181-0.362l-0.155-0.311l-1.074-2.162l-2.641-5.281l-1.126-2.239l-0.298-0.595l-0.453-0.919
			c0,0-0.065,0-0.181,0.013c-0.311,0.026-0.997,0.078-1.929,0.233c-1.955,0.285-4.996,0.932-7.818,2.33
			c-3.482,1.709-6.653,4.531-7.171,9.191c-0.039,0.337-0.065,0.66-0.091,0.984C116.117,392.84,116.091,393.591,116.117,394.29z"/>
		<path style="fill:#FFA200;" d="M137.543,379.702c0,0-15.906,0.819-17.108,11.766c-1.202,10.948,5.039,12.931,5.039,12.931
			l12.068-9.452l5.927-3.376L137.543,379.702z"/>
		<path style="fill:#FFA40A;" d="M131.249,374.679v10.304c0,0.427,0.078,0.841,0.233,1.217c0.479,1.256,1.696,2.136,3.12,2.136
			h7.728c0.984,0,1.929-0.44,2.563-1.191l2.99-3.547c0.505-0.609,0.777-1.372,0.777-2.162v-8.841c0-0.777-0.259-1.489-0.699-2.045
			c-0.738-0.958-1.98-1.501-3.288-1.243l-6.395,1.243l-4.323,0.842c-0.143,0.026-0.298,0.065-0.427,0.116
			c-0.583,0.181-1.087,0.531-1.476,0.984C131.547,373.087,131.249,373.851,131.249,374.679z"/>
		<path style="fill:#FFAF24;" d="M123.431,381.876c0.168,0.919,0.414,1.786,0.751,2.615c0.66,1.67,1.657,3.133,3.107,4.233
			c0.362,0.272,0.751,0.531,1.165,0.751c0.816,0.453,1.747,0.802,2.809,1.035c1.178,0.259,2.524,0.388,4.039,0.349
			c0.35,0,0.699-0.026,1.074-0.052c0.803-0.052,1.67-0.155,2.576-0.311c0.725-0.116,1.489-0.272,2.278-0.453
			c0.453-0.104,0.893-0.207,1.333-0.298c1.553-0.324,3.029-0.57,4.414-0.738c0.634-0.09,1.256-0.155,1.851-0.207
			c1.295-0.116,2.511-0.168,3.65-0.168c2.628,0.013,4.88,0.311,6.809,0.829c1.359,0.349,2.55,0.815,3.612,1.359
			c0.712,0.349,1.359,0.738,1.942,1.152c0.039,0.013,0.065,0.039,0.104,0.078c1.307,0.919,2.33,1.968,3.12,3.016
			c0.518,0.686,0.945,1.385,1.268,2.045c0.492,0.945,0.816,1.838,1.023,2.563c0.026,0.103,0.052,0.194,0.078,0.272
			c0.815-0.647,1.32-1.605,1.32-2.68v-2.369c0-1.799-1.243-3.327-2.925-3.741c-1.165-3.314-3.715-5.967-6.964-7.249
			c-1.385-0.557-2.887-0.854-4.466-0.854c-1.32,0-2.589,0.207-3.767,0.595c-1.398-0.867-3.055-1.683-4.971-2.291v-8.763
			c0-0.777-0.259-1.489-0.699-2.045h2.447c0.647,0,1.178-0.531,1.178-1.191c0-0.647-0.531-1.178-1.178-1.178h-20.012
			c-0.647,0-1.178,0.531-1.178,1.178c0,0.66,0.531,1.191,1.178,1.191h0.893l0.764,1.942c-0.505,0.596-0.803,1.359-0.803,2.188v4.867
			C129.294,379.831,126.252,380.478,123.431,381.876z M138.278,370.55l-4.323,0.842c-0.143,0.026-0.298,0.065-0.427,0.116
			l-0.466-0.958H138.278z"/>
		<g>
			<path style="fill:#3D3437;" d="M133.18,380.813v-5.224c0-1.248,0.885-2.321,2.11-2.559l8.336-1.62
				c1.609-0.313,3.105,0.92,3.105,2.559v6.843H133.18z"/>
			<path style="fill:#0086FB;" d="M134.071,375.806v3.896h11.767v-5.113c0-1.217-1.294-2.136-2.692-1.903l-2.149,0.362l-1.735,0.285
				l-2.434,0.401l-0.919,0.155c-0.285,0.052-0.544,0.142-0.764,0.259C134.485,374.498,134.071,375.12,134.071,375.806z"/>
			<polygon style="fill:#FFFFFF;" points="139.262,373.333 142.213,379.702 144.077,379.702 140.996,373.048 			"/>
			<path style="fill:#FFFFFF;" d="M135.145,374.149l2.576,5.553h1.864l-2.757-5.967l-0.919,0.155
				C135.624,373.941,135.365,374.032,135.145,374.149z"/>
		</g>
		<g>
			<polygon style="fill:#4A4146;" points="136.963,399.975 141.669,399.975 141.669,390.664 136.042,390.664 			"/>
			<polygon style="fill:#544A50;" points="137.315,391.697 137.38,392.499 137.445,393.444 137.548,394.791 137.626,395.736 
				137.729,397.095 137.807,398.04 137.872,398.946 140.706,398.946 140.706,391.697 			"/>
			<polygon style="fill:#4A4146;" points="137.38,392.499 137.445,393.444 140.706,393.444 140.706,392.499 			"/>
			<polygon style="fill:#4A4146;" points="137.548,394.791 137.626,395.736 140.706,395.736 140.706,394.791 			"/>
			<polygon style="fill:#4A4146;" points="137.729,397.095 137.807,398.04 140.706,398.04 140.706,397.095 			"/>
		</g>
		<g>
			<path style="fill:#FFA40A;" d="M110.603,394.601v1.437c0,1.411,1.139,2.55,2.55,2.55h4.168c1.411,0,2.55-1.139,2.55-2.55v-1.437
				c0-0.104-0.013-0.22-0.026-0.324c-0.117-0.971-0.79-1.773-1.683-2.084c-0.259-0.09-0.544-0.142-0.841-0.142h-4.168
				c-0.919,0-1.735,0.492-2.175,1.23c-0.181,0.298-0.311,0.634-0.35,0.997C110.616,394.381,110.603,394.497,110.603,394.601z"/>
			<path style="fill:#4A4146;" d="M110.603,394.717v1.32c0,1.411,1.139,2.55,2.55,2.55h4.168c1.411,0,2.55-1.139,2.55-2.55v-1.32
				H110.603z"/>
			<g>
				<path d="M134.903,397.903c0,5.161-4.184,9.344-9.344,9.344c-5.161,0-9.344-4.184-9.344-9.344s4.184-9.344,9.344-9.344
					C130.719,388.559,134.903,392.742,134.903,397.903z"/>
				<path style="fill:#4A4146;" d="M130.127,397.903c0,2.523-2.045,4.568-4.568,4.568c-2.523,0-4.568-2.045-4.568-4.568
					c0-2.523,2.045-4.568,4.568-4.568C128.081,393.335,130.127,395.38,130.127,397.903z"/>
				<path style="fill:#C28101;" d="M127.995,397.903c0,1.346-1.091,2.437-2.437,2.437c-1.346,0-2.437-1.091-2.437-2.437
					c0-1.346,1.091-2.437,2.437-2.437C126.904,395.466,127.995,396.557,127.995,397.903z"/>
			</g>
			<g>
				<g>
					<path style="fill:#4A4146;" d="M134.461,398.783c-0.819,0-1.483-0.664-1.483-1.483c0-4.091-3.329-7.419-7.419-7.419
						c-4.091,0-7.42,3.329-7.42,7.419c0,0.819-0.664,1.483-1.483,1.483s-1.483-0.664-1.483-1.483c0-5.727,4.66-10.386,10.386-10.386
						c5.727,0,10.386,4.66,10.386,10.386C135.944,398.119,135.28,398.783,134.461,398.783z"/>
				</g>
			</g>
		</g>
	</g>
	<g>
		<g>
			<g>
				
					<ellipse transform="matrix(0.9325 -0.3613 0.3613 0.9325 -132.3317 50.7322)" style="fill:#FFFFFF;" cx="69.514" cy="379.279" rx="31.543" ry="31.543"/>
				
					<ellipse transform="matrix(0.9269 -0.3754 0.3754 0.9269 -110.9745 188.9881)" style="fill:#FFFFFF;" cx="429.498" cy="379.279" rx="31.543" ry="31.543"/>
				<g>
					<g>
						<path style="fill:#D7D6DE;" d="M431.642,413.616H71.125c-1.754,0-3.176-1.422-3.176-3.177c0-1.755,1.422-3.176,3.176-3.176
							h360.517c1.755,0,3.176,1.422,3.176,3.176C434.818,412.194,433.397,413.616,431.642,413.616z"/>
					</g>
					<g>
						<path style="fill:#D7D6DE;" d="M430.486,413.616c-18.91,0-34.295-15.385-34.295-34.295s15.385-34.294,34.295-34.294
							s34.294,15.384,34.294,34.294S449.396,413.616,430.486,413.616z M430.486,351.379c-15.408,0-27.942,12.534-27.942,27.941
							c0,15.408,12.534,27.942,27.942,27.942c15.407,0,27.941-12.534,27.941-27.942
							C458.427,363.914,445.893,351.379,430.486,351.379z"/>
					</g>
					<g>
						<path style="fill:#D7D6DE;" d="M69.514,413.616c-18.91,0-34.295-15.385-34.295-34.295s15.385-34.294,34.295-34.294
							s34.295,15.384,34.295,34.294S88.424,413.616,69.514,413.616z M69.514,351.379c-15.407,0-27.942,12.534-27.942,27.941
							c0,15.408,12.534,27.942,27.942,27.942c15.407,0,27.942-12.534,27.942-27.942C97.456,363.914,84.922,351.379,69.514,351.379z"
							/>
					</g>
				</g>
			</g>
		</g>
		<circle style="fill:#D7D6DE;" cx="430.485" cy="379.64" r="18.189"/>
		<circle style="fill:#D7D6DE;" cx="69.514" cy="379.64" r="18.189"/>
	</g>
</g>
</svg>
