<?xml version="1.0" encoding="utf-8"?>
<!-- Generator: Adobe Illustrator 27.5.0, SVG Export Plug-In . SVG Version: 6.00 Build 0)  -->
<svg version="1.1" xmlns="http://www.w3.org/2000/svg" xmlns:xlink="http://www.w3.org/1999/xlink" x="0px" y="0px"
	 viewBox="0 0 750 500" style="enable-background:new 0 0 750 500;" xml:space="preserve">
<g id="BACKGROUND">
	<rect x="0.91" y="0.931" style="fill:#FFFFFF;" width="750" height="500"/>
</g>
<g id="OBJECTS">
	<g>
		<path style="fill:#00273C;" d="M153.583,240.819c-6.298-3.815-17.711-5.558-21.485-12.294c-3.522-6.285,0.117-13.376,6.713-15.343
			c8.375-2.498,14.461,4.147,16.166,11.724c3.459,15.37,27.087,8.866,23.618-6.511c-4.339-19.234-22.732-33.066-42.562-29.627
			c-18.738,3.249-31.904,20.503-29.24,39.426c1.216,8.641,5.444,16.561,12.301,22.026c7.905,6.3,18.353,8.039,26.19,14.449
			c4.995,4.086,11.197,13.679,4.719,19.244c-8.233,7.07-17.955-2.999-23.847-7.658c-9.745-7.704-24.18,1.678-17.801,13.735
			c8.985,16.982,32.013,24.893,49.446,17.258c18.416-8.065,23.646-29.798,14.876-47.068
			C168.528,252.01,161.335,245.514,153.583,240.819z"/>
		<path style="fill:#00273C;" d="M269.855,268.641c-4.673-11.281-22.392-10.885-22.546,3.051c-0.05,4.518-0.118,7.577-4.841,9.702
			c-4.15,1.866-9.553,1.111-13.593-0.632c-11.66-5.03-13.339-16.833-13.708-28.183c-0.373-11.445-0.141-24.974,9.721-32.733
			c8.904-7.006,22.835-3.701,21.838,9.023c-1.232,15.716,23.267,15.636,24.493,0c2.042-26.056-24.992-43.083-48.57-35.198
			c-26.004,8.696-32.982,36.037-31.917,60.605c1.012,23.357,11.077,45.455,35.777,51.391c11.063,2.659,23.403,0.974,32.565-5.968
			C268.008,292.929,274.428,279.683,269.855,268.641z"/>
		<path style="fill:#00273C;" d="M572.032,268.641c-4.673-11.281-22.392-10.885-22.546,3.051c-0.05,4.518-0.118,7.577-4.841,9.702
			c-4.15,1.866-9.553,1.111-13.593-0.632c-11.66-5.03-13.338-16.833-13.708-28.183c-0.373-11.445-0.141-24.974,9.721-32.733
			c8.904-7.006,22.835-3.701,21.838,9.023c-1.232,15.716,23.267,15.636,24.493,0c2.042-26.056-24.992-43.083-48.57-35.198
			c-26.004,8.696-32.982,36.037-31.917,60.605c1.012,23.357,11.077,45.455,35.777,51.391c11.064,2.659,23.403,0.974,32.565-5.968
			C570.185,292.929,576.605,279.683,572.032,268.641z"/>
		<path style="fill:#00273C;" d="M311.069,197.907c-2.316-10.96-18.903-10.362-21.58,0c-3.959,15.32-2.088,33.319-2.446,49.1
			c-0.376,16.558-0.752,33.115-1.128,49.673c-0.358,15.765,24.154,15.765,24.493,0c0.356-16.558,0.712-33.115,1.069-49.673
			C311.818,231.167,314.352,213.441,311.069,197.907z"/>
		<path style="fill:#00273C;" d="M385.248,287.28c-6.908-2.676-14.002-1.233-21.244-1.149c-4.168,0.048-8.353-0.083-12.524-0.378
			c0.39-7.004,0.663-14.01,0.878-21.018c8.812,0.059,18.755,1.259,26.456-2.358c7.877-3.7,6.949-15.695,0-19.656
			c-7.116-4.056-17.463-3.035-26.073-2.208c0.016-8.059-0.04-16.119-0.255-24.18c9.864,0.322,19.706,0.976,29.541,2.007
			c15.601,1.635,15.477-22.765,0-24.397c-14.026-1.479-28.066-2.236-42.17-2.274c-6.404-0.017-12.481,5.611-12.212,12.212
			c1.258,30.904,0.819,61.811-1.315,92.667c-0.33,4.774,4.003,11.08,8.988,11.805c15.023,2.184,39.2,6.581,52.271-3.166
			C394.598,299.961,393.454,290.46,385.248,287.28z"/>
		<path style="fill:#00273C;" d="M639.519,287.28c-6.908-2.676-14.002-1.233-21.244-1.149c-4.168,0.048-8.353-0.083-12.524-0.378
			c0.39-7.004,0.663-14.01,0.878-21.018c8.812,0.059,18.755,1.259,26.456-2.358c7.878-3.7,6.949-15.695,0-19.656
			c-7.116-4.056-17.463-3.035-26.073-2.208c0.016-8.059-0.041-16.119-0.255-24.18c9.864,0.322,19.706,0.976,29.541,2.007
			c15.601,1.635,15.477-22.765,0-24.397c-14.026-1.479-28.066-2.236-42.17-2.274c-6.404-0.017-12.481,5.611-12.212,12.212
			c1.257,30.904,0.819,61.811-1.315,92.667c-0.33,4.774,4.003,11.08,8.988,11.805c15.023,2.184,39.2,6.581,52.271-3.166
			C648.869,299.961,647.725,290.46,639.519,287.28z"/>
		<path style="fill:#00273C;" d="M482.961,255.85c0.067-17.35-0.188-34.697-0.703-52.039c-0.464-15.602-24.756-15.67-24.301,0
			c0.434,14.95,0.679,29.904,0.683,44.86c0,2.027-0.035,4.055-0.042,6.082c-2.417-5.1-4.721-10.256-6.871-15.484
			c-6.638-16.139-13.047-31.825-24.852-44.983c-7.307-8.145-20.678-1.472-20.86,8.641c-0.304,16.843-0.608,33.685-0.912,50.528
			c-0.285,15.809-3.19,34.498,0.802,49.842c2.788,10.718,18.166,10.205,21.21,0c2.338-7.838,1.82-16.433,2.025-24.578
			c0.212-8.419,0.292-16.844,0.438-25.264c0.025-1.411,0.049-2.821,0.073-4.232c0.698,1.709,1.401,3.41,2.12,5.092
			c7.373,17.234,16.106,33.773,26.062,49.652c4.606,7.346,16.708,8.462,21.039,0C485.792,290.444,482.904,270.63,482.961,255.85z"/>
	</g>
	<g>
		<path style="fill:#FFCF26;" d="M618.546,103.836c-3.896-1.827-8.315-0.427-10.599,2.954c-0.363,0.446-0.68,0.934-0.937,1.457
			c-2.108,4.285-0.225,9.866,4.227,11.748c4.444,1.879,9.803-0.126,11.659-4.637C624.712,110.943,622.9,105.878,618.546,103.836z"/>
		<path style="fill:#FFCF26;" d="M628.798,78.291c0.373-2.707-1.123-5.613-3.703-6.65c-2.104-0.845-4.573-0.237-6.171,1.297
			c-2.18,1.47-2.943,4.249-2.024,6.717C619.071,85.484,627.951,84.442,628.798,78.291z"/>
		<path style="fill:#FFCF26;" d="M582.157,122.443c0.052-3.085-1.839-5.823-4.893-6.536c-0.653-0.153-1.309-0.187-1.944-0.125
			c-1.135,0.068-2.32,0.531-3.245,1.287c-2.374,1.941-3.276,5.525-2.094,8.348c1.109,2.65,4.167,4.24,6.974,3.758
			C580.076,128.639,582.107,125.456,582.157,122.443z"/>
		<path style="fill:#FFCF26;" d="M634.976,141.383c-1.138-0.462-2.501-0.471-3.69,0.025c-2.605,1.086-4.01,3.896-3.77,6.64
			c0.525,5.989,8.832,8.236,12.044,2.968C642.054,146.925,638.926,141.978,634.976,141.383z"/>
		<path style="fill:#00273C;" d="M653.84,119.534c6.098-8.801,0.147-19.589-8.494-23.884c-2.478-1.232-5.1-2.027-7.788-2.546
			c-0.654-4.99-2.519-9.782-6.111-14.045c-0.756-0.897-2.201,0.216-1.444,1.115c3.216,3.817,4.958,8.119,5.653,12.609
			c-3.579-0.522-7.244-0.623-10.822-0.644c-0.964-0.006-1.928-0.004-2.893,0.002c-3.18-2.831-6.537-5.46-10.043-7.867
			c0.506-0.71,0.995-1.432,1.439-2.182c0.008-0.013,0-0.031-0.017-0.029c-1.009,0.122-1.921,0.647-2.755,1.331
			c-0.643-0.427-1.28-0.865-1.933-1.276c-8.532-5.379-22.366-9.593-26.961,2.941c-1.947,5.31-1.682,10.838-0.17,16.126
			c-4.829,3.217-8.413,7.577-9.015,13.476c-0.078,0.761,0.98,0.84,1.151,0.134c1.232-5.08,4.345-8.909,8.434-11.808
			c1.622,4.747,4.178,9.253,6.97,13.171c0.866,1.215,1.776,2.41,2.709,3.593c-0.639,3.846-0.978,8.315-0.596,12.643
			c-3.523-0.626-7.009-1.572-10.427-2.955c-1.088-0.44-1.774,1.25-0.684,1.691c3.705,1.499,7.494,2.526,11.331,3.17
			c1.075,7.598,4.629,14.376,13.051,15.97c5.806,1.099,10.394-2.319,14.003-6.443c2.232,1.438,4.498,2.788,6.79,4.032
			c0.777,0.422,1.528-0.884,0.777-1.36c-2.14-1.357-4.243-2.758-6.324-4.187c2.531-3.166,4.735-6.662,6.714-10.298
			c4.161-0.941,8.298-2.013,12.372-3.231c1.947-0.582,3.914-1.26,5.801-2.096c1.627,6.044,1.188,12.129-3.212,17.464
			c-0.749,0.908,0.703,2.013,1.448,1.109c4.857-5.888,5.116-12.702,3.242-19.268C649.089,124.452,651.847,122.41,653.84,119.534z
			 M635.858,94.465c0.374,3.868,0.019,7.843-0.829,11.756c-3.452-4.487-7.275-8.697-11.423-12.557
			C627.675,93.595,631.887,93.769,635.858,94.465z M629.514,102.36c1.573,1.797,3.291,3.828,4.996,6.028
			c-0.724,2.755-1.657,5.462-2.735,8.05c-1.986,4.766-4.257,9.478-6.745,14.032c-0.836,0.174-1.625,0.337-2.347,0.489
			c-4.998,1.051-10.064,1.845-15.127,2.192c-4.992-4.217-9.653-8.817-13.855-13.937c0.372-2.071,0.818-3.99,1.278-5.64
			c1.777-6.38,4.522-12.497,8.109-18.063c0.028-0.044,0.06-0.085,0.089-0.129c2.923-0.48,5.745-0.796,8.293-1.003
			c2.843-0.231,6.093-0.503,9.506-0.641C623.989,96.44,626.846,99.314,629.514,102.36z M612.668,87.038
			c2.247,1.624,4.426,3.341,6.533,5.142c-4.876,0.105-9.751,0.421-14.572,1.146c1.97-2.621,4.209-5.039,6.203-7.61
			C611.459,86.165,612.075,86.61,612.668,87.038z M583.138,100.164c-1.966-7.707-1.511-18.834,7.533-21.27
			c6.527-1.757,13.093,1.921,18.599,5.725c-0.674,0.723-1.286,1.483-1.842,2.112c-1.948,2.206-3.732,4.562-5.359,7.018
			C596.095,94.831,588.932,96.781,583.138,100.164z M583.661,101.928c5-3.084,11.162-4.961,17.104-6.113
			c-0.167,0.274-0.345,0.541-0.509,0.817c-3.798,6.409-6.525,13.428-8.044,20.721C588.594,112.691,585.461,107.568,583.661,101.928z
			 M593.309,121.678c3.416,4.116,7.203,8.018,11.263,11.627c-3.909,0.124-7.807-0.055-11.664-0.617
			C592.591,129.05,592.815,125.22,593.309,121.678z M605.334,148.596c-7.838-1.035-11.186-6.981-12.209-14.029
			c4.444,0.611,8.946,0.727,13.454,0.479c3.334,2.825,6.83,5.448,10.426,7.844C613.876,146.482,610.005,149.213,605.334,148.596z
			 M622.947,134.176c-1.274,2.177-2.835,4.775-4.684,7.169c-2.969-2.079-5.871-4.237-8.675-6.511
			c3.335-0.299,6.666-0.782,9.973-1.397c1.43-0.266,2.857-0.556,4.284-0.857C623.543,133.11,623.254,133.65,622.947,134.176z
			 M627.472,129.951c1.744-3.372,3.335-6.815,4.845-10.179c1.374-3.059,2.603-6.285,3.553-9.583
			c3.298,4.465,6.395,9.505,8.128,14.639C638.767,127.286,632.533,128.848,627.472,129.951z M645.439,124.112
			c-1.325-3.812-3.298-7.501-5.43-10.828c-1.134-1.771-2.326-3.506-3.571-5.203c1.089-4.392,1.631-8.875,1.302-13.238
			c6.794,1.522,12.669,4.777,15.579,11.265C657.22,114.808,652.537,120.395,645.439,124.112z"/>
	</g>
	<g>
		<path style="fill:#FFCF26;" d="M289.499,394.026c-0.61-2.63-2.263-5.005-3.587-7.318c-2.248-3.927-4.538-7.831-6.866-11.711
			c-4.185-6.973-8.385-14.012-13.014-20.705c-0.133-6.533-0.729-13.488-2.16-19.855c0.132-0.033,0.269-0.056,0.4-0.09
			c2.817-0.729,5.621-2.713,4.85-5.933c-0.288-1.202-1.182-2.154-2.527-2.001c-5.921,0.671-11.837,1.376-17.747,2.132
			c-4.237,0.541-11.122,0.057-14.683,2.616c-1.895,1.362-2.482,3.725-0.86,5.629c1.636,1.92,4.726,2.147,7.479,1.908
			c-0.142,2.109,0.11,4.29,0.227,6.397c0.229,4.15,0.625,8.281,1.109,12.408c-3.34,7.584-5.592,15.701-8.176,23.564
			c-2.112,6.426-4.943,13.158-5.003,20.021c-0.045,5.063,1.92,9.48,7.505,9.611c7.277,0.171,15.383-2.598,22.533-3.932
			c8.288-1.546,16.977-2.504,25.117-4.684C288.271,400.967,290.557,398.59,289.499,394.026z"/>
		<path style="fill:#00273C;" d="M263.579,329.396c-8.519,3.398-17.043,4.557-26.169,4.031c-0.542-0.031-0.688,0.771-0.131,0.849
			c9.133,1.275,18.302-0.132,26.797-3.652C264.861,330.297,264.373,329.079,263.579,329.396z"/>
		<path style="fill:#00273C;" d="M282.69,389.828c-2.68-4.982-6.309-9.658-9.421-14.379c-0.268-0.406-0.837-0.413-1.207-0.171
			c-9.1,5.961-20.4,2.314-30.553,4.043c-0.136-0.252-0.595-0.287-0.747,0.026c-0.02,0.041-0.037,0.083-0.057,0.125
			c-0.044,0.009-0.087,0.016-0.131,0.024c-0.661,0.136-0.859,0.793-0.693,1.281c-1.168,2.371-1.998,5.041-2.496,7.716
			c-0.454,1.562-0.882,3.13-1.28,4.694c-0.213,0.834-0.573,1.878-0.922,2.995c-0.077,0.165-0.147,0.331-0.226,0.495
			c-0.09,0.188-0.098,0.355-0.074,0.511c-0.584,2.051-0.981,4.216-0.282,5.745c1.295,2.83,5.426,1.453,7.711,1.192
			c5.814-0.662,11.627-1.326,17.441-1.99c5.49-0.627,10.986-1.218,16.472-1.881c2.525-0.305,5.729-0.555,7.269-2.936
			C285.049,394.912,283.903,392.083,282.69,389.828z"/>
		<path style="fill:#00273C;" d="M260.556,364.759c-0.079-0.14-0.212-0.244-0.421-0.25c-2.782-0.08-5.023,2.4-5.037,5.143
			c-0.013,2.721,2.347,4.552,4.94,4.567c2.588,0.016,4.852-1.827,4.864-4.507C264.913,367.338,263.12,364.678,260.556,364.759z
			 M260.352,372.738c-1.762,0.119-3.624-0.908-3.799-2.801c-0.195-2.114,1.533-3.963,3.559-4.209
			c0.138-0.017,0.245-0.085,0.33-0.173c1.6,0.675,2.856,1.983,2.994,3.8C263.58,371.248,262.197,372.613,260.352,372.738z"/>
		<path style="fill:#00273C;" d="M260.692,367.596c-0.846-0.599-1.852-0.676-2.651,0.001c-0.203,0.172-0.026,0.549,0.241,0.426
			c1.252-0.577,2.738,0.612,2.565,1.913c-0.063,0.473,0.659,0.723,0.831,0.242C262.026,369.203,261.502,368.169,260.692,367.596z"/>
		<path style="fill:#00273C;" d="M258.091,353.495c-0.851-2.922-3.928-4.702-6.832-4.292c-0.036-0.009-0.063-0.034-0.105-0.029
			c-3.371,0.37-5.877,3.754-5.284,7.111c0.599,3.388,4.298,5.796,7.633,5.027C256.812,360.55,259.04,356.754,258.091,353.495z
			 M253.165,359.985c-2.606,0.557-5.52-1.265-5.977-3.943c-0.395-2.319,0.866-4.314,2.715-5.497
			c0.095,0.062,0.213,0.093,0.355,0.059c2.446-0.577,5.274,0.272,6.357,2.742C257.769,355.974,255.938,359.392,253.165,359.985z"/>
		<path style="fill:#00273C;" d="M251.933,351.757c-0.382-0.028-0.477,0.526-0.092,0.594c1.999,0.352,3.171,2.8,2.164,4.562
			c-0.298,0.522,0.567,0.901,0.858,0.376C256.119,355.026,254.542,351.947,251.933,351.757z"/>
		<path style="fill:#00273C;" d="M257.72,338.629c-0.036-0.052-0.078-0.1-0.138-0.13c-1.93-0.972-4.006,1.686-4.166,3.371
			c-0.199,2.096,1.585,3.629,3.578,3.693c1.923,0.062,3.647-1.273,3.656-3.276C260.659,340.738,259.44,338.668,257.72,338.629z
			 M257.083,344.533c-1.454-0.027-2.815-1.068-2.618-2.637c0.097-0.772,0.537-1.486,1.142-1.967c0.61-0.485,1.269-0.485,1.966-0.732
			c0.007-0.002,0.008-0.009,0.015-0.012c1.108,0.584,1.943,1.359,2.049,2.735C259.757,343.474,258.612,344.562,257.083,344.533z"/>
		<path style="fill:#00273C;" d="M256.758,340.54c-0.199,0.032-0.231,0.364-0.007,0.376c0.595,0.03,1.053,0.389,1.321,0.91
			c0.274,0.532,0.228,0.993-0.066,1.495c-0.206,0.351,0.361,0.673,0.602,0.362C259.595,342.408,258.343,340.284,256.758,340.54z"/>
	</g>
	<g>
		<path style="fill:#FFCF26;" d="M342.193,112.349c-1.334-12.686-13.212-21.196-25.077-23.133
			c-13.276-2.167-26.658,3.888-30.951,17.229c-2.168,6.735-1.4,14.138,1.689,20.468c3.185,6.528,14.792,13.532,11.377,21.455
			c-0.318,0.738-0.233,1.398,0.071,1.91c0.009,0.271,0.065,0.536,0.162,0.786c-0.139,0.341-0.145,0.752,0.09,1.012
			c1.761,1.947,4.239,2.041,6.758,2.484c3.324,0.585,6.673,1.125,10.024,1.536c0.144,0.018,0.273,0.004,0.406-0.001
			c0.598,0.871,2.063,0.862,2.321-0.419c0.194-0.968,0.342-2.089,0.389-3.212c0.2-0.395,0.316-0.836,0.311-1.266
			c-0.07-6.275,5.774-9.318,9.966-12.801c2.549-2.117,4.872-4.483,6.801-7.184C340.409,125.782,342.903,119.099,342.193,112.349z"/>
		<path style="fill:#00273C;" d="M318.229,160.946c1.289-0.039,2.548-1.13,2.415-2.49c-0.087-0.89-0.752-1.629-1.568-1.911
			c0.001-0.336-0.178-0.67-0.605-0.759c-6.162-1.284-12.391-2.527-18.632-3.347c-0.452-0.06-0.693,0.297-0.667,0.636
			c-1.445,0.987-1.484,3.568-0.089,4.669c-0.027,0.104-0.031,0.211-0.011,0.312c-0.719,0.476-1.248,1.357-1.302,2.136
			c-0.066,0.931,0.414,1.743,1.136,2.211c-0.218,0.045-0.406,0.258-0.305,0.514c3.338,8.469,14.131,9.192,20.113,3.237
			c0.3-0.299,0.217-0.652-0.015-0.882C319.594,163.947,319.393,162.068,318.229,160.946z M300.305,153.764
			c5.896,1.441,11.915,2.532,17.894,3.556c0.179,0.031,0.325-0.006,0.454-0.067c0.47,0.237,0.833,0.675,0.854,1.233
			c0.036,0.915-0.905,1.454-1.72,1.269c-0.266-0.06-0.456,0.049-0.561,0.219c-5.677-1.394-11.532-2.505-17.379-2.798
			c-0.002,0-0.003,0.001-0.005,0.001C298.641,156.285,299.124,154.398,300.305,153.764z M300.662,158.779
			c0.053-0.02,0.094-0.048,0.134-0.077c5.454,0.791,10.856,1.585,16.244,2.813c0.122,0.028,0.232,0.027,0.33,0.007
			c0.759,0.793,0.899,2.048,0.352,2.982c-0.089-0.112-0.217-0.203-0.407-0.237c-5.245-0.942-11.433-2.205-16.873-2.021
			c-0.033-0.051-0.068-0.103-0.13-0.128c-0.743-0.307-1.425-1.013-1.337-1.876C299.078,159.264,299.9,159.071,300.662,158.779z
			 M299.675,163.073c5.323,1.722,11.884,2.094,17.404,2.539c0.007,0.001,0.012-0.002,0.018-0.002
			c0.005,0.036,0.015,0.07,0.025,0.105C311.401,170.894,303.982,168.943,299.675,163.073z"/>
		<path style="fill:#00273C;" d="M332.692,123.762c-1.382,1.746-4.518,0.44-7.432-1.237c1.046-1.253,2.227-2.448,3.57-3.569
			c0.708-0.591-0.106-1.777-0.827-1.184c-1.491,1.224-2.803,2.575-3.985,4.01c-1.775-1.092-3.351-2.177-4.223-2.58
			c-2.481-1.146-5.105-1.769-7.837-1.864c-4.182-0.145-8.314,0.938-11.756,3.191c-0.437-0.869-0.874-1.725-1.304-2.563
			c-0.414-0.807-1.76-0.327-1.342,0.495c0.501,0.985,0.987,1.963,1.465,2.937c-0.724,0.561-1.424,1.156-2.066,1.831
			c-0.309,0.325,0.174,0.86,0.53,0.583c0.66-0.514,1.337-0.979,2.022-1.418c4.423,9.197,7.484,18.1,5.716,28.786
			c-0.039,0.234,0.32,0.368,0.412,0.132c3.822-9.903-0.351-20.507-4.878-29.67c6.2-3.49,13.248-3.945,19.888-0.313
			c0.655,0.358,1.521,0.926,2.496,1.546c-6.232,8.317-7.958,19.458-7.783,29.801c0.008,0.457,0.755,0.489,0.808,0.033
			c1.194-10.305,2.051-20.862,8.21-29.064c3.303,2.002,7.383,3.933,9.494,1.117C334.462,123.972,333.313,122.978,332.692,123.762z"
			/>
	</g>
	<g>
		<path style="fill:#FFCF26;" d="M451.657,122.086c0.643-7.373,0.768-15.726-0.714-22.985c1.055-0.246,2.039-0.64,2.837-1.312
			c1.627-1.37,2.168-3.683,0.962-5.524c-1.616-2.468-5.534-2.649-8.076-2.962c-5.067-0.625-17.959-2.281-21.132,3.422
			c-2.266,4.073,1.067,6.048,4.565,6.601c-0.278,1.988-0.004,4.289-0.001,5.596c0.012,5.814-0.118,11.672,0.094,17.492
			c-10.373,2.636-16.177,16.964-14.931,26.586c1.53,11.814,12.16,21.536,24.001,22.338c11.901,0.806,23.47-7.762,26.597-19.197
			C469.109,140.256,462.494,127.371,451.657,122.086z"/>
		<path style="fill:#00273C;" d="M450.937,92.744c-7.062,0.822-13.875,0.98-20.964,0.402c-0.489-0.04-0.607,0.78-0.117,0.864
			c6.989,1.203,14.262,1.206,21.244-0.065C451.769,93.823,451.624,92.664,450.937,92.744z"/>
		<path style="fill:#00273C;" d="M460.196,146.902c-0.159-0.42-0.6-0.713-1.067-0.38c-2.916,2.08-5.979,4.255-9.538,5.042
			c-4.047,0.895-8.053-0.53-11.929-1.502c-5.684-1.425-11.451-1.579-17.006,0.424c-0.378-0.257-1.057,0.112-0.878,0.632
			c3.33,9.647,12.821,16.361,23.125,15.454c10.058-0.886,17.581-8.895,17.99-18.917
			C460.913,147.172,460.568,146.927,460.196,146.902z"/>
		<path style="fill:#00273C;" d="M445.172,134.236c-0.313,0-0.503,0.166-0.58,0.378c-2.15,0.018-4.141,1.802-4.525,4.025
			c-0.54,3.131,2.343,5.726,5.236,6.118c2.847,0.386,6.125-1.356,6.42-4.438C452.085,136.552,448.565,134.232,445.172,134.236z
			 M445.598,143.305c-1.898-0.219-3.821-1.549-4.108-3.541c-0.355-2.465,2.042-4.509,4.413-4.114
			c0.027,0.005,0.053-0.001,0.079-0.002c2.08,0.42,4.148,1.669,4.267,4.023C450.372,142.134,447.778,143.556,445.598,143.305z"/>
		<path style="fill:#00273C;" d="M448.693,138.64c-0.389-1.097-1.634-1.646-2.722-1.344c-0.376,0.104-0.212,0.632,0.158,0.573
			c0.754-0.122,1.588,0.343,1.735,1.126c0.133,0.713-0.326,1.277-0.924,1.582c-0.521,0.265-0.151,1.189,0.405,0.961
			C448.454,141.081,449.106,139.804,448.693,138.64z"/>
		<path style="fill:#00273C;" d="M441.331,127.439c-0.63-2.235-3.067-3.371-5.182-2.712c-0.015-0.004-0.024-0.018-0.039-0.02
			c-2.397-0.298-4.525,2.084-4.262,4.423c0.324,2.88,3.423,4.638,6.12,3.989C440.436,132.524,442.027,129.907,441.331,127.439z
			 M437.498,131.948c-1.855,0.361-3.965-0.735-4.423-2.657c-0.423-1.776,0.809-3.107,2.324-3.677
			c0.107,0.22,0.334,0.381,0.608,0.287c1.623-0.554,3.473,0.059,4.082,1.747C440.779,129.558,439.399,131.578,437.498,131.948z"/>
		<path style="fill:#00273C;" d="M436.937,127.278c-0.267-0.01-0.403,0.41-0.143,0.526c0.998,0.444,1.093,1.712,0.262,2.361
			c-0.503,0.393,0.137,1.085,0.646,0.837C439.283,130.231,438.711,127.347,436.937,127.278z"/>
		<path style="fill:#00273C;" d="M447.393,109.205c-0.774-4.083-4.851-4.787-8.39-4.454c-0.253,0.024-0.415,0.178-0.491,0.363
			c-2.474,0.843-3.896,3.712-3.16,6.363c0.898,3.24,4.247,5.139,7.502,4.494C446.023,115.342,447.996,112.388,447.393,109.205z
			 M443.262,114.584c-2.448,0.832-5.252-0.222-6.43-2.545c-1.265-2.494-0.178-5.13,2.115-6.168c0.02,0.001,0.035,0.01,0.056,0.01
			c2.499-0.048,5.545-0.206,6.816,2.439C446.979,110.734,445.807,113.719,443.262,114.584z"/>
		<path style="fill:#00273C;" d="M441.472,107.765c-0.456,0.001-0.434,0.646,0,0.694c0.766,0.084,1.394,0.575,1.754,1.243
			c0.372,0.692,0.294,1.276,0.124,2c-0.13,0.557,0.631,0.903,0.935,0.394C445.403,110.22,443.433,107.761,441.472,107.765z"/>
	</g>
	<g>
		<path style="fill:#FFCF26;" d="M503.268,336.141c-3.259-2.25-9.333-2.176-13.149-2.876c-5.34-0.98-11.136-2.76-16.557-3.006
			c-5.791-0.262-6.446,6.567-1.349,8.645c0.428,0.175,0.875,0.322,1.323,0.464c-3.608,14.756-5.786,30.02-7.819,45.042
			c-1.161,8.578-4.032,23.934,7.699,26.885c12.448,3.132,15.391-12.722,16.392-21.232c1.853-15.758,4.737-31.361,8.382-46.798
			c1.258,0.101,2.516,0.147,3.77,0.102c0.721-0.026,1.21-0.534,1.428-1.147C505.545,340.984,506.316,338.245,503.268,336.141z"/>
		<path style="fill:#00273C;" d="M501.117,337.296c-10.021,1.172-18.495-0.541-27.841-4.146c-0.556-0.214-0.892,0.527-0.391,0.828
			c8.333,5.003,18.877,6.336,28.374,4.77C502.175,338.597,502.06,337.186,501.117,337.296z"/>
		<path style="fill:#00273C;" d="M487.878,380.723c0.098-0.746-0.728-1.086-1.221-0.809c-0.147-0.206-0.397-0.321-0.703-0.181
			c-4.06,1.859-6.72,0.036-10.163-1.893c-1.88-1.053-3.696-1.502-5.75-0.744c-0.04,0.015-0.065,0.038-0.096,0.058
			c-0.161,0.037-0.302,0.15-0.327,0.346c-0.624,4.769-1.984,10.05-2.421,15.146c-0.048,0.395-0.076,0.788-0.086,1.179
			c-0.003,0.045-0.003,0.09-0.005,0.135c-0.002,0.119-0.014,0.239-0.013,0.358c-0.07,1.654-0.027,3.281,0.199,4.854
			c0.6,4.169,2.975,8.215,7.225,9.435c4.295,1.233,7.93-1.493,9.687-5.27C487.236,396.817,486.958,387.762,487.878,380.723z"/>
		<path style="fill:#00273C;" d="M488.097,366.011c-0.602-2.441-3.146-3.746-5.497-3.237c-2.379,0.127-4.379,2.243-4.197,4.708
			c0.202,2.74,2.87,4.86,5.572,4.4C486.628,371.43,488.768,368.729,488.097,366.011z M484.169,370.636
			c-1.9,0.569-3.882-0.653-4.477-2.494c-0.651-2.014,0.751-3.767,2.526-4.436c0.109,0.169,0.286,0.28,0.518,0.227
			c1.544-0.358,3.197,0.28,3.94,1.735C487.712,367.698,486.189,370.031,484.169,370.636z"/>
		<path style="fill:#00273C;" d="M485.913,349.468c-0.331-2.569-2.984-5.536-5.674-3.817c-0.006,0.004-0.007,0.008-0.013,0.012
			c-2.625,0.015-4.98,2.02-5.015,4.844c-0.038,3.081,2.544,5.612,5.632,5.365C484.111,355.61,486.327,352.683,485.913,349.468z
			 M480.088,354.694c-2.185-0.173-3.764-2.044-3.729-4.221c0.035-2.167,1.832-3.724,3.847-4.077c0.154,0.136,0.38,0.198,0.606,0.067
			c0.107-0.062,0.209-0.099,0.313-0.142c0.071,0.001,0.142-0.002,0.213,0.002c0.123,0.007,0.2-0.058,0.249-0.138
			c2.116-0.35,3.399,3.115,3.139,4.797C484.379,353.236,482.379,354.875,480.088,354.694z"/>
		<path style="fill:#00273C;" d="M482.76,348.394c-0.583-0.668-1.462-1.011-2.318-0.696c-0.345,0.127-0.233,0.728,0.15,0.65
			c0.581-0.118,1.108,0.153,1.435,0.638c0.346,0.512,0.279,0.944,0.141,1.508c-0.119,0.485,0.546,0.732,0.845,0.394
			C483.645,350.171,483.327,349.044,482.76,348.394z"/>
		<path style="fill:#00273C;" d="M484.945,366.35c-0.424-0.592-1.053-0.82-1.744-0.639c-0.272,0.072-0.235,0.552,0.053,0.564
			c0.759,0.033,1.221,0.88,0.895,1.535c-0.254,0.511,0.519,1.037,0.86,0.552C485.444,367.74,485.383,366.962,484.945,366.35z"/>
	</g>
	<g>
		<path style="fill:#FFCF26;" d="M146.559,102.117c-10.691-8.459-25.762-5.945-33.111,5.538c-3.685,5.758-4.866,13.099-2.395,19.562
			c1.885,4.928,5.789,8.522,10.287,11.047c6.698,3.362,21.121,4.409,28.055-3.715C157.797,124.707,156.807,110.226,146.559,102.117z
			"/>
		<path style="fill:#00273C;" d="M182.052,158.458c-6.626-7.405-15.228-13.626-22.675-20.204c-0.613-0.542-1.416-0.072-1.55,0.523
			c-0.188-0.024-0.392,0.02-0.579,0.178c-0.04,0.034-0.08,0.067-0.12,0.102c-0.602,0.518-1.493,0.569-2.107,0.066
			c-0.004-0.003-0.007-0.006-0.011-0.009c-0.356-0.293-0.717-0.576-1.08-0.86c7.525-10.394,9.573-24.391,2.295-35.536
			C149.349,92.19,135.57,88.2,123.643,91.043c-11.292,2.692-19.548,12.257-20.929,23.746c-1.323,11.003,4.524,21.782,13.824,27.568
			c8.384,5.215,19.578,5.655,28.592,1.551c0.679-0.309,1.476-0.153,1.962,0.413c0.133,0.155,0.266,0.309,0.396,0.464
			c0.139,0.165,0.28,0.34,0.425,0.514c0.494,0.591,0.536,1.447,0.064,2.057c-0.089,0.116-0.175,0.233-0.256,0.353
			c-0.093,0.137-0.061,0.313,0.034,0.44c-0.149,0.182-0.186,0.448,0.035,0.679c6.495,6.799,13.372,14.34,20.963,19.925
			c3.979,2.927,9.415,4.77,13.765,1.371C186.745,166.819,185.132,161.9,182.052,158.458z M114.165,138.401
			c-10.128-8.555-12.846-23.069-5.756-34.426c8.09-12.958,26.749-15.485,39.212-7.384c14.191,9.224,13.808,28.19,4.739,40.753
			c-0.117,0.163-0.263,0.305-0.428,0.419C140.409,145.741,125.683,148.132,114.165,138.401z M148.467,143.806
			c-0.387-0.332-0.771-0.678-1.167-1.007c1.891-1.064,3.669-2.327,5.257-3.826c0.183,0.061,0.384,0.077,0.575,0.031
			c0.346,0.365,0.698,0.724,1.055,1.079c0.272,0.27,0.535,0.593,0.822,0.872c-0.928,0.856-1.851,1.719-2.795,2.554
			c-0.32,0.283-0.659,0.564-1.006,0.846c-0.619,0.504-1.516,0.499-2.12-0.023C148.879,144.15,148.666,143.977,148.467,143.806z
			 M180.441,169.318c-6.589,3.499-13.007-3.982-17.298-8.01c-4.232-3.973-8.457-7.942-12.848-11.736
			c-0.792-0.684-0.779-1.931,0.058-2.558c0.932-0.697,1.806-1.512,2.644-2.217c1.809-1.521,3.664-3.085,5.266-4.826
			c0.052-0.057,0.078-0.116,0.11-0.175c4.526,3.994,9.051,7.989,13.576,11.983c2.188,1.931,4.418,3.822,6.567,5.797
			c1.096,1.007,2.369,1.985,3.114,3.298C182.95,163.198,183.238,167.833,180.441,169.318z"/>
	</g>
	<path style="fill:#03293E;" d="M147.476,331.997c-0.456,1.72-0.857,3.471-1.175,5.222c-0.232,1.279,1.6,1.546,1.77,0.24
		c0.229-1.76,0.379-3.545,0.467-5.318C148.568,331.527,147.631,331.413,147.476,331.997z"/>
	<path style="fill:#03293E;" d="M147.849,344.673c-0.083-0.545-1.018-0.545-1.101,0c-0.241,1.597-0.506,3.21-0.441,4.827
		c0.051,1.275,1.931,1.277,1.982,0C148.354,347.882,148.09,346.27,147.849,344.673z"/>
	<path style="fill:#03293E;" d="M147.351,357.514c-0.097-0.926-1.345-0.927-1.442,0c-0.16,1.527-0.437,3.142-0.233,4.675
		c0.163,1.223,1.744,1.226,1.907,0C147.788,360.656,147.511,359.043,147.351,357.514z"/>
	<path style="fill:#03293E;" d="M153.973,371.94c-1.794,0.152-3.173-0.528-4.098-2.075c-0.408-0.682-1.406-0.221-1.249,0.527
		c0.504,2.394,3.28,3.952,5.59,3.348C155.189,373.485,155.025,371.851,153.973,371.94z"/>
	<path style="fill:#03293E;" d="M169.577,373.396c-2.5-0.407-5.048-0.572-7.575-0.703c-0.841-0.044-1.05,1.337-0.202,1.49
		c2.486,0.449,5.005,0.882,7.527,1.057C170.368,375.312,170.627,373.566,169.577,373.396z"/>
	<path style="fill:#03293E;" d="M182.027,373.318c-0.892-0.06-1.784,0.007-2.671,0.113c-1.002,0.119-1.004,1.443,0,1.562
		c0.888,0.105,1.779,0.173,2.671,0.113C183.176,375.027,183.178,373.395,182.027,373.318z"/>
	<path style="fill:#03293E;" d="M202.311,373.969c-2.432-0.415-5.114-0.596-7.58-0.577c-0.752,0.006-0.952,1.17-0.182,1.342
		c2.398,0.538,5.061,0.941,7.516,1.049C203.086,375.828,203.349,374.146,202.311,373.969z"/>
	<path style="fill:#03293E;" d="M215.421,373.895c-1.118-0.08-2.223,0.04-3.339,0.12c-1.11,0.08-1.112,1.647,0,1.727
		c1.117,0.08,2.221,0.201,3.339,0.12C216.685,375.772,216.687,373.986,215.421,373.895z"/>
	<path style="fill:#03293E;" d="M231.699,374.421c-0.751,0.022-1.502,0.045-2.253,0.067c-0.09,0.003-0.159,0.035-0.237,0.054
		c-1.036,0.037-2.073,0.076-3.102,0.187c-1.051,0.113-1.053,1.524,0,1.637c1.03,0.111,2.066,0.15,3.102,0.187
		c0.078,0.019,0.147,0.051,0.237,0.053c0.751,0.022,1.502,0.045,2.253,0.067C233.134,376.782,233.162,374.378,231.699,374.421z"/>
	<g>
		<path style="fill:#03293E;" d="M656.882,246.292c-0.898-0.026-1.778,0.069-2.671,0.15c-0.83,0.076-0.831,1.216,0,1.292
			c0.894,0.082,1.773,0.176,2.671,0.15C657.906,247.854,657.908,246.322,656.882,246.292z"/>
		<path style="fill:#03293E;" d="M673.68,243.825c-0.508,0.584-0.898,1.181-1.609,1.544c-0.713,0.363-1.505,0.453-2.282,0.271
			c-0.925-0.217-1.292,1.127-0.391,1.419c2.073,0.673,4.961-0.179,5.75-2.379C675.442,243.863,674.246,243.174,673.68,243.825z"/>
		<path style="fill:#03293E;" d="M677.099,230.391c-0.064-1.091-1.633-1.093-1.697,0c-0.078,1.331,0.069,2.677,0.15,4.007
			c0.055,0.898,1.342,0.899,1.397,0C677.03,233.069,677.177,231.723,677.099,230.391z"/>
		<path style="fill:#03293E;" d="M676.154,215.474c-0.349,1.828-0.594,3.697-0.644,5.558c-0.021,0.783,1.126,0.911,1.342,0.182
			c0.531-1.793,0.865-3.644,1.102-5.496C678.083,214.699,676.346,214.463,676.154,215.474z"/>
		<path style="fill:#03293E;" d="M677.181,200.337c-0.084-1.197-1.778-1.199-1.862,0c-0.109,1.545,0.003,3.13,0.105,4.675
			c0.07,1.062,1.582,1.064,1.652,0C677.178,203.468,677.29,201.882,677.181,200.337z"/>
		<path style="fill:#03293E;" d="M677.204,184.309c-0.111-1.225-1.797-1.227-1.907,0c-0.16,1.77-0.105,3.799,0.193,5.553
			c0.128,0.752,1.393,0.753,1.521,0C677.309,188.106,677.364,186.077,677.204,184.309z"/>
		<path style="fill:#03293E;" d="M676.365,168.482c-0.434-0.789-1.843-0.474-1.763,0.477c0.045,0.53,0.216,1.017,0.174,1.556
			c-0.041,0.52-0.173,1.002-0.432,1.453c-0.426,0.742,0.651,1.655,1.227,0.947C676.526,171.738,677.156,169.918,676.365,168.482z"/>
		<path style="fill:#03293E;" d="M674.534,159.113c-1.389-0.992-3.11-1.774-4.671-2.455c-1.074-0.469-2.033,1.061-0.942,1.611
			c0.51,0.257,1.021,0.514,1.531,0.771c0.152,0.076,0.297,0.098,0.438,0.096c1.048,0.439,2.125,0.837,3.181,1.075
			C674.757,160.366,675.083,159.505,674.534,159.113z"/>
	</g>
	<path style="fill:#03293E;" d="M327.481,69.508c-0.053-0.995-1.493-0.996-1.547,0c-0.082,1.539,0.126,3.14,0.263,4.675
		c0.059,0.656,0.963,0.657,1.021,0C327.355,72.649,327.563,71.047,327.481,69.508z"/>
	<path style="fill:#03293E;" d="M341.618,61.384c-2.557-0.592-5.161-0.088-7.35,1.346c-0.792,0.519-0.1,1.713,0.743,1.271
		c1.927-1.01,4.008-1.299,6.148-0.952C342.231,63.224,342.721,61.639,341.618,61.384z"/>
	<path style="fill:#03293E;" d="M358.765,60.037c-1.144-0.008-2.369-0.019-3.485,0.26c-0.522,0.13-0.522,0.927,0,1.057
		c1.116,0.278,2.342,0.268,3.485,0.26C359.779,61.607,359.781,60.045,358.765,60.037z"/>
	<path style="fill:#03293E;" d="M379.011,59.393c-1.204-0.388-2.525,0.048-3.43,0.885c-0.732,0.677,0.328,1.668,1.073,1.073
		c0.553-0.442,1.248-0.494,1.918-0.364C379.61,61.186,380.033,59.722,379.011,59.393z"/>
	<path style="fill:#03293E;" d="M399.505,58.792c-1.974-0.147-4.037,0.007-6.011,0.135c-0.724,0.047-0.726,1.079,0,1.126
		c1.973,0.128,4.037,0.282,6.011,0.135C400.402,60.122,400.404,58.859,399.505,58.792z"/>
	<path style="fill:#03293E;" d="M421.747,60.121c-2.18-0.578-4.629-0.58-6.869-0.814c-0.833-0.087-1.038,1.355-0.2,1.475
		c2.229,0.319,4.606,0.917,6.859,0.887C422.417,61.658,422.62,60.352,421.747,60.121z"/>
	<path style="fill:#03293E;" d="M431.763,62.782c-0.749-0.307-1.258,0.933-0.55,1.304c0.786,0.412,1.4,1.181,1.495,2.084
		c0.127,1.204,1.839,0.994,1.652-0.223C434.135,64.471,433.119,63.338,431.763,62.782z"/>
	<path style="fill:#03293E;" d="M437.238,77.496c-0.176-0.873-0.228-1.755-0.22-2.644c0.007-0.836-1.372-1.077-1.505-0.204
		c-0.286,1.877-0.463,4.356,0.465,6.085c0.615,1.146,2.118,0.292,1.949-0.822C437.802,79.092,437.403,78.319,437.238,77.496z"/>
	<path style="fill:#03293E;" d="M451.231,361.766c-2.65-3.907-7.937-5.089-12.195-3.101c-2.261,1.055-3.731,2.917-4.687,5.183
		c-0.673,1.594-0.985,3.29-1.486,4.937c-0.664,2.183-2.957,6.276-5.568,6.326c-0.047-0.264-0.222-0.499-0.59-0.586
		c-0.66-0.155-1.255-0.367-1.804-0.619c-0.2-0.217-0.4-0.461-0.599-0.745c-0.204-0.292-0.57-0.248-0.734-0.022
		c-5.389-3.822-4.372-13.127-7.185-18.719c-2.713-5.394-10.001-4.988-14.967-2.971c-12.486,5.069-7.436,22.546-12.84,32.471
		c-4.698,3.791-10.359,0.803-11.791-5.552c-1.345-5.971-0.418-12.937-0.445-19.028c-0.037-8.447,0.128-19.062-8.838-23.176
		c-0.308-0.141-0.589-0.084-0.795,0.065c-4.252-0.447-8.103,2.542-10.508,5.933c-3.752,5.288-4.615,12.279-4.656,18.596
		c-0.041,6.404,3.382,41.577-6.901,44.465c-0.035-0.542-0.405-1.076-1.053-1.06c-11.087,0.287-13.762-11.459-15.409-20.133
		c-1.75-9.216-2.907-18.635-6.061-27.516c-1.712-4.821-4.559-7.696-9.221-3.657c-5.107,4.424-8.398,11.415-9.125,18.061
		c-0.048,0.44,0.665,0.526,0.767,0.104c1.145-4.754,9.816-26.118,15.851-14.819c1.791,3.353,2.338,8.081,3.02,11.781
		c0.741,4.018,1.269,8.073,1.846,12.117c1.327,9.3,3.892,27.294,16.591,26.466c3.258,1.331,6.73-0.541,8.727-3.615
		c3.588-5.523,4.257-13.703,4.543-20.118c0.549-12.313-6.647-43.152,12.615-44.611c0.001,0,0.003-0.001,0.004-0.001
		c5.981,4.91,5.794,13.148,5.771,20.335c-0.022,6.776-1.011,14.683,0.897,21.259c1.132,3.902,4.005,7.791,8.326,8.29
		c3.64,0.421,7.475-1.697,8.592-5.226c0.04-0.127,0.025-0.25-0.017-0.364c4.988-9.251,0.024-24.783,11.318-29.105
		c4.518-1.729,10.743-1.44,12.689,3.734c1.165,3.098,1.3,6.471,2.208,9.637c1.112,3.88,3.34,7.716,7.212,9.011
		c2.148,1.914,6.262,0.742,8.113-1.609c2.404-3.053,2.29-7.109,4.111-10.413c2.701-4.902,9.189-4.513,12.635-0.741
		C450.381,363.894,451.902,362.755,451.231,361.766z"/>
	<path style="fill:#03293E;" d="M279.365,132.291c-2.639,5.622-8.87,7.135-14.095,3.904c-4.786-2.96-6.82-8.666-7.498-13.977
		c-0.721-5.647-0.81-15.892-9.169-15.054c-0.192,0.019-0.316,0.116-0.386,0.237c-8.867-0.754-15.36,7.91-17.487,15.86
		c-2.81,10.503-1.307,25.676-11.58,32.259c-0.228-0.214-0.56-0.33-0.971-0.248c-10.469,2.101-11.889-10.606-11.952-17.805
		c-0.033-3.764,0.028-7.535-0.096-11.298c-0.066-1.995-0.091-4.19-1.04-6.006c-1.711-3.278-5.47-3.885-8.592-2.193
		c-4.508,2.444-4.907,8.03-4.974,12.569c-0.012,0.812,1.181,0.789,1.247,0c0.274-3.311,0.448-7.387,2.907-9.924
		c2.33-2.404,6.669-2.956,8.237,1.236c0.465,1.242,0.349,2.988,0.34,4.319c-0.038,6.016-0.653,12.168-0.006,18.164
		c0.692,6.412,5.307,14.435,12.445,13.492c0.159,0.19,0.403,0.298,0.679,0.2c8.41-3.007,11.911-11.333,13.293-19.589
		c1.796-10.727,3.145-31.517,19.219-29.084c0.491,0.074,0.849-0.229,0.983-0.592c5.613,2.753,3.943,12.813,5.328,18.075
		c1.102,4.188,3.287,8.134,6.802,10.758c6.028,4.5,15.934,3.557,18.358-4.463C281.705,131.975,279.898,131.157,279.365,132.291z"/>
	<path style="fill:#03293E;" d="M527.848,372.51c-0.371-2.853-3.078-5.102-5.954-4.469c-0.042,0.009-0.073,0.028-0.106,0.046
		c-0.186-0.202-0.462-0.32-0.78-0.236c-2.646,0.698-3.964,3.768-3.448,6.31c0.549,2.706,3.147,4.198,5.791,3.779
		C525.996,377.52,528.213,375.31,527.848,372.51z M522.774,376.242c-4.378,0.334-4.299-5.249-1.141-6.91
		c0.213-0.112,0.33-0.281,0.375-0.466c2.037,0.079,4.007,1.779,4.182,3.867C526.355,374.721,524.619,376.101,522.774,376.242z"/>
	<path style="fill:#03293E;" d="M570.824,347.772c-0.34-0.02-0.584,0.235-0.664,0.531c-2.742-0.394-5.229,1.999-5.542,4.708
		c-0.35,3.037,2.206,5.292,5.083,5.452c2.793,0.156,5.359-1.665,5.647-4.534C575.624,351.199,573.763,347.941,570.824,347.772z
		 M570.222,356.535c-1.763,0.015-3.614-1.098-3.647-3.013c-0.038-2.168,1.953-4.013,4.037-4.107
		c0.118-0.005,0.213-0.051,0.291-0.112c1.487,0.827,2.61,2.093,2.651,3.919C573.597,355.166,572.127,356.519,570.222,356.535z"/>
	<path style="fill:#03293E;" d="M626.37,373.435c-0.489-3.025-3.994-5.122-6.769-3.485c-0.121,0.071-0.2,0.168-0.261,0.273
		c-2.199,0.348-3.951,2.443-4.015,4.771c-0.085,3.131,3.019,5.09,5.893,4.875C624.432,379.628,626.893,376.675,626.37,373.435z
		 M620.815,378.091c-1.802,0.035-3.717-1.125-3.698-3.097c0.017-1.707,1.337-3.246,2.964-3.557c0.025-0.004,0.049-0.003,0.076-0.01
		c0.217-0.036,0.438-0.056,0.663-0.046c0.167,0.008,0.295-0.058,0.387-0.158c1.74-0.126,3.376,0.936,3.441,2.935
		C624.718,376.361,622.954,378.049,620.815,378.091z"/>
	<path style="fill:#03293E;" d="M649.575,332.595c-1.157-3.113-4.817-4.789-7.862-3.473c-0.264,0.114-0.352,0.314-0.331,0.516
		c-2.258,0.291-3.895,2.947-3.699,5.301c0.284,3.417,3.6,6.332,7.071,5.64C648.223,339.888,650.854,336.036,649.575,332.595z
		 M645.125,338.251c-5.461,2.291-7.748-7.713-2.005-7.388c0.322,0.018,0.511-0.322,0.453-0.597c1.478,0.158,2.883,0.921,3.673,2.235
		C648.506,334.599,647.294,337.341,645.125,338.251z"/>
	<path style="fill:#03293E;" d="M561.718,353.712c-5.11,1.919-9.999,4.636-14.896,7.039c-5.338,2.62-10.729,5.178-15.874,8.166
		c-0.796,0.462-0.262,1.898,0.648,1.537c5.094-2.019,10.018-4.434,14.962-6.789c5.33-2.539,10.964-4.864,16.016-7.922
		C563.609,355.117,562.938,353.254,561.718,353.712z"/>
	<path style="fill:#03293E;" d="M611.431,373.142c-10.963-5.501-21.676-11.495-32.218-17.765c-0.929-0.552-1.689,0.823-0.834,1.427
		c10.056,7.094,20.636,13.254,31.672,18.699C611.622,376.277,613.008,373.933,611.431,373.142z"/>
	<path style="fill:#03293E;" d="M643.974,344.605c-6.17,6.857-11.515,14.705-15.247,23.152c-0.397,0.9,0.81,1.666,1.349,0.788
		c4.779-7.777,9.837-15.121,15.746-22.093C646.897,345.184,645.11,343.342,643.974,344.605z"/>
	<path style="fill:#03293E;" d="M534.674,138.761c-0.635-0.114-1.157,0.385-1.208,0.91c-2.53-0.322-5.024,1.733-5.521,4.247
		c-0.598,3.025,1.829,5.468,4.698,5.829c2.868,0.362,5.586-1.336,6.076-4.267C539.17,142.787,537.578,139.282,534.674,138.761z
		 M533.301,147.642c-1.699-0.038-3.482-1.192-3.331-3.072c0.17-2.117,2.22-3.695,4.271-3.448c0.197,0.024,0.34-0.037,0.438-0.139
		c1.197,0.869,2.031,2.072,1.956,3.683C536.548,146.506,535.104,147.683,533.301,147.642z"/>
	<path style="fill:#03293E;" d="M514.591,73.323c-0.061-0.009-0.115,0.003-0.171,0.007c-0.109-0.131-0.255-0.236-0.459-0.28
		c-3.489-0.747-6.51,2.965-6.789,6.141c-0.315,3.595,2.589,6.282,6.037,6.522c3.36,0.234,6.534-1.969,6.749-5.465
		C520.158,77.027,517.839,73.796,514.591,73.323z M513.635,83.491c-2.204-0.041-4.248-1.5-4.232-3.848
		c0.02-2.781,2.216-4.117,4.557-4.797c0.111-0.032,0.206-0.085,0.29-0.15C518.995,75.888,519.112,83.593,513.635,83.491z"/>
	<path style="fill:#03293E;" d="M488.654,112.622c-0.199-3.056-3.688-7.554-7.18-6.099c-0.113,0.047-0.205,0.115-0.286,0.192
		c-3.141,0.222-5.337,3.634-5.259,6.591c0.094,3.556,3.252,5.853,6.659,5.63C485.94,118.717,488.885,116.146,488.654,112.622z
		 M482.383,116.637c-2.185,0.121-4.148-1.255-4.257-3.54c-0.11-2.309,1.313-4.129,3.306-5.002c0.016,0.006,0.026,0.015,0.043,0.021
		c1.181,0.365,2.227,0.449,3.196,1.303c0.911,0.803,1.606,1.977,1.713,3.203C486.591,114.972,484.564,116.516,482.383,116.637z"/>
	<path style="fill:#03293E;" d="M524.947,136.704c-11.734-6.287-23.717-12.382-35.763-18.05c-0.974-0.458-1.81,0.897-0.856,1.465
		c11.402,6.791,23.375,13.056,35.399,18.673C525.114,139.441,526.338,137.45,524.947,136.704z"/>
	<path style="fill:#03293E;" d="M534.138,132.658c-3.37-14.412-8.407-28.728-14.281-42.304c-0.584-1.351-2.949-0.375-2.402,1.013
		c5.44,13.797,10.343,27.698,15.263,41.683C533.031,133.937,534.356,133.59,534.138,132.658z"/>
	<path style="fill:#03293E;" d="M268.596,83.779c-34.446-0.89-69.042-2.348-103.5-1.886c-0.624,0.008-0.613,0.921,0,0.961
		c34.401,2.284,69.039,2.663,103.5,3.598C270.317,86.499,270.316,83.824,268.596,83.779z"/>
	<path style="fill:#03293E;" d="M653.552,398.757c-9.388-1.032-19.104-0.745-28.544-0.884c-9.519-0.14-19.04-0.156-28.559-0.05
		c-19.047,0.213-38.093,0.91-57.085,2.393c-0.656,0.051-0.674,1.061,0,1.036c19.022-0.702,38.049-1.265,57.085-1.295
		c9.24-0.015,18.481,0.087,27.719,0.304c9.761,0.23,19.632,1.189,29.384,0.989C655.191,401.217,655.114,398.929,653.552,398.757z"/>
	<path style="fill:#03293E;" d="M84.232,186.492c-1.252-2.096-3.885-3.261-6.233-2.789c-0.069-0.016-0.139-0.022-0.209-0.009
		c-3.414,0.633-5.52,4.515-4.221,7.706c1.254,3.08,4.98,4.901,8.038,3.264C84.427,193.155,85.949,189.366,84.232,186.492z
		 M80.68,192.579c-2.129,1.172-4.639-0.316-5.272-2.521c-0.508-1.769,0.335-3.119,1.489-4.237c1.774-0.597,3.859-0.366,5.117,1.178
		C83.469,188.786,82.614,191.515,80.68,192.579z"/>
	<path style="fill:#03293E;" d="M53.42,242.529c-0.039-0.002-0.069,0.009-0.104,0.013c-0.092-0.114-0.219-0.208-0.398-0.256
		c-2.969-0.793-5.67,2.595-5.908,5.244c-0.289,3.221,2.362,5.635,5.455,5.791c2.967,0.15,5.748-1.917,5.851-5.011
		C58.415,245.378,56.392,242.713,53.42,242.529z M52.646,250.997c-1.771-0.025-3.459-1.184-3.449-3.083
		c0.014-2.365,1.783-3.411,3.721-4.108c0.112-0.04,0.202-0.106,0.283-0.181c0.023,0.012,0.04,0.03,0.065,0.039
		C56.844,245.002,57.146,251.06,52.646,250.997z"/>
	<path style="fill:#03293E;" d="M82.837,297.131c-0.209-0.054-0.386,0.005-0.521,0.114c-0.067-0.334-0.276-0.628-0.641-0.684
		c-2.869-0.438-5.426,1.967-5.86,4.735c-0.456,2.909,1.718,5.356,4.522,5.805c2.704,0.433,5.445-1.061,6.003-3.852
		C86.855,300.674,85.462,297.807,82.837,297.131z M80.787,304.902c-1.691-0.254-3.11-1.584-2.806-3.391
		c0.319-1.897,1.927-2.892,3.693-3.14c0.219-0.031,0.381-0.147,0.493-0.305c0.047,0.071,0.108,0.137,0.194,0.19
		C85.303,300.039,84.914,305.521,80.787,304.902z"/>
	<path style="fill:#03293E;" d="M62.825,349.477c-1.048-3.24-5.312-5.617-8.439-3.755c-0.218,0.13-0.345,0.318-0.398,0.524
		c-1.817,1.205-2.901,3.531-2.661,5.772c0.367,3.425,3.657,5.276,6.874,4.567C61.406,355.878,63.903,352.809,62.825,349.477z
		 M57.619,354.471c-4.656,0.763-5.102-5.093-2.038-7.195c2.151-0.434,4.494,0.511,5.25,2.751
		C61.59,352.276,59.724,354.126,57.619,354.471z"/>
	<path style="fill:#03293E;" d="M79.551,311.194c-5.616,9.77-10.857,19.71-15.601,29.933c-0.376,0.811,0.786,1.526,1.219,0.713
		c5.276-9.927,10.604-19.833,16.119-29.63C81.925,311.08,80.197,310.069,79.551,311.194z"/>
	<path style="fill:#03293E;" d="M80.903,288.656c-8.59-10.413-15.754-21.53-22.932-32.925c-0.526-0.835-1.727-0.108-1.31,0.766
		c5.818,12.188,13.94,23.483,22.595,33.805C80.223,291.455,81.848,289.802,80.903,288.656z"/>
	<path style="fill:#03293E;" d="M71.997,201.215c-5.667,11.586-10.486,23.638-15.481,35.526c-0.305,0.725,0.935,1.249,1.276,0.538
		c5.579-11.632,11.383-23.248,16.291-35.184C74.573,200.904,72.563,200.058,71.997,201.215z"/>
</g>
</svg>
